<?xml version="1.0" encoding="UTF-8"?>
<svg version="1.1" xmlns="http://www.w3.org/2000/svg" width="256" height="256">
<path d="M0 0 C84.48 0 168.96 0 256 0 C256 84.48 256 168.96 256 256 C171.52 256 87.04 256 0 256 C0 171.52 0 87.04 0 0 Z " fill="#FDFDFD" transform="translate(0,0)"/>
<path d="M0 0 C0 79.2 0 158.4 0 240 C-27.05482668 246.76370667 -51.28708856 248.90430381 -78 240 C-78 160.8 -78 81.6 -78 0 C-52.09860445 -8.63379852 -25.99041007 -7.79712302 0 0 Z " fill="#675DD7" transform="translate(167,8)"/>
<path d="M0 0 C4.47671433 0.89534287 7.32321681 2.00210099 11.3125 4.0625 C12.38113281 4.61035156 13.44976562 5.15820312 14.55078125 5.72265625 C15.35902344 6.14417969 16.16726562 6.56570312 17 7 C17 7.66 17 8.32 17 9 C17.7321875 9.27070313 18.464375 9.54140625 19.21875 9.8203125 C31.98800773 15.23648643 43.36315164 27.38901487 52 38 C53.2065625 39.3921875 53.2065625 39.3921875 54.4375 40.8125 C56 43 56 43 56 46 C56.66 46 57.32 46 58 46 C68.47760972 64.06663242 75.42263953 81.07295354 78 102 C78.09796875 102.72574219 78.1959375 103.45148438 78.296875 104.19921875 C78.58457192 107.88333761 77.99148071 109.01053702 75.625 111.9375 C73 114 73 114 71 114 C71 115.32 71 116.64 71 118 C71.8971875 118.4021875 71.8971875 118.4021875 72.8125 118.8125 C75.11540196 120.06264678 76.41860673 120.91274317 78 123 C79.50646866 145.17128882 68.38149558 167.18166939 58 186 C57.34 186 56.68 186 56 186 C55.89429688 186.57621094 55.78859375 187.15242187 55.6796875 187.74609375 C54.8986171 190.33619501 53.77751302 191.92903169 52.125 194.0625 C51.61195313 194.73410156 51.09890625 195.40570313 50.5703125 196.09765625 C49.11876393 197.8561243 47.71468151 199.49613999 46 201 C45.34 201 44.68 201 44 201 C43.78214844 201.55042969 43.56429687 202.10085937 43.33984375 202.66796875 C41.56680922 205.75397928 39.17528118 207.94998364 36.5625 210.3125 C36.03479004 210.79307861 35.50708008 211.27365723 34.96337891 211.76879883 C22.33462582 223 22.33462582 223 17 223 C17 223.66 17 224.32 17 225 C14.73272667 226.17407021 12.46165376 227.33939739 10.1875 228.5 C9.54490234 228.83386719 8.90230469 229.16773438 8.24023438 229.51171875 C5.30452301 231.00239084 3.33873483 232 0 232 C0 155.44 0 78.88 0 0 Z " fill="#695FD6" transform="translate(175,12)"/>
<path d="M0 0 C1.26498951 -0.00275499 2.52997902 -0.00550999 3.83330154 -0.00834846 C5.23821348 -0.00125524 6.64312451 0.00602055 8.04803467 0.01345825 C9.55036789 0.01407099 11.05270168 0.01380382 12.55503464 0.01272774 C16.5784156 0.0122762 20.60167762 0.02386835 24.62503052 0.03794861 C28.40031306 0.049338 32.17556667 0.04987482 35.9508667 0.05130005 C46.99206084 0.06179494 58.03323285 0.08971724 69.07440186 0.11550903 C93.74190186 0.15675903 118.40940186 0.19800903 143.82440186 0.24050903 C143.82440186 84.72050903 143.82440186 169.20050903 143.82440186 256.24050903 C91.35440186 256.24050903 38.88440186 256.24050903 -15.17559814 256.24050903 C-13.69059814 255.25050903 -13.69059814 255.25050903 -12.17559814 254.24050903 C-12.50559814 253.58050903 -12.83559814 252.92050903 -13.17559814 252.24050903 C-9.10908794 251.39405931 -6.14686218 251.24714041 -2.11309814 252.17800903 C17.13575524 255.65614343 35.93641068 252.01810727 54.82440186 248.24050903 C54.82440186 169.04050903 54.82440186 89.84050903 54.82440186 8.24050903 C35.215703 4.35870521 35.215703 4.35870521 15.57440186 3.05300903 C14.18886108 3.05204224 14.18886108 3.05204224 12.77532959 3.05105591 C6.8129845 3.09708507 1.14117078 3.53369949 -4.70294189 4.80300903 C-7.562397 5.30894738 -10.27764894 5.3080013 -13.17559814 5.24050903 C-13.50559814 4.58050903 -13.83559814 3.92050903 -14.17559814 3.24050903 C-13.59809814 3.11675903 -13.02059814 2.99300903 -12.42559814 2.86550903 C-10.18549078 2.34605969 -10.18549078 2.34605969 -8.42094803 1.21647835 C-5.49845294 -0.05382057 -3.18546056 -0.00532686 0 0 Z M62.82440186 12.24050903 C62.82440186 88.80050903 62.82440186 165.36050903 62.82440186 244.24050903 C67.30111618 243.34516617 70.14761866 242.23840804 74.13690186 240.17800903 C75.73985107 239.35623169 75.73985107 239.35623169 77.37518311 238.51785278 C78.18342529 238.09632935 78.99166748 237.67480591 79.82440186 237.24050903 C79.82440186 236.58050903 79.82440186 235.92050903 79.82440186 235.24050903 C81.16244873 234.85572388 81.16244873 234.85572388 82.52752686 234.46316528 C87.81850447 232.50098994 91.58145412 228.88263059 95.82440186 225.24050903 C97.22625732 224.04168091 97.22625732 224.04168091 98.65643311 222.81863403 C103.73604469 218.73276671 103.73604469 218.73276671 106.82440186 213.24050903 C107.48440186 213.24050903 108.14440186 213.24050903 108.82440186 213.24050903 C110.41205516 211.55089635 111.92168879 209.78733532 113.38690186 207.99050903 C114.19256592 207.01597778 114.99822998 206.04144653 115.82830811 205.03738403 C117.57408017 202.59125331 118.42798714 201.16145957 118.82440186 198.24050903 C119.48440186 198.24050903 120.14440186 198.24050903 120.82440186 198.24050903 C131.53145767 180.94235652 138.36051796 162.48720717 140.82440186 142.24050903 C140.92237061 141.51347778 141.02033936 140.78644653 141.12127686 140.03738403 C141.40946758 136.35494704 140.8145921 135.22837592 138.44940186 132.30300903 C136.11868617 130.03456852 136.11868617 130.03456852 133.82440186 130.24050903 C133.82440186 128.92050903 133.82440186 127.60050903 133.82440186 126.24050903 C134.72158936 125.83832153 134.72158936 125.83832153 135.63690186 125.42800903 C137.93980381 124.17786226 139.24300858 123.32776586 140.82440186 121.24050903 C142.33297369 99.03826698 131.63144197 76.91160066 120.82440186 58.24050903 C120.16440186 58.24050903 119.50440186 58.24050903 118.82440186 58.24050903 C118.74190186 57.68750122 118.65940186 57.13449341 118.57440186 56.56472778 C114.08327591 42.64691559 95.35369564 29.48826582 83.41815186 22.05300903 C81.82558464 21.08911322 81.82558464 21.08911322 79.82440186 21.24050903 C79.82440186 20.58050903 79.82440186 19.92050903 79.82440186 19.24050903 C77.55712852 18.06643883 75.28605562 16.90111164 73.01190186 15.74050903 C72.3693042 15.40664185 71.72670654 15.07277466 71.06463623 14.72879028 C68.12892486 13.23811819 66.16313668 12.24050903 62.82440186 12.24050903 Z " fill="#FDFDFD" transform="translate(112.17559814453125,-0.240509033203125)"/>
<path d="M0 0 C0.88107422 -0.00257812 1.76214844 -0.00515625 2.66992188 -0.0078125 C4.01086914 0.00378906 4.01086914 0.00378906 5.37890625 0.015625 C6.71405273 0.00402344 6.71405273 0.00402344 8.07617188 -0.0078125 C8.95853516 -0.00523438 9.84089844 -0.00265625 10.75 0 C11.92260376 0.00338379 11.92260376 0.00338379 13.11889648 0.00683594 C17.11425657 0.3731608 21.02482793 1.39527426 24.94140625 2.265625 C24.94140625 70.905625 24.94140625 139.545625 24.94140625 210.265625 C14.79866844 212.51956674 14.79866844 212.51956674 10.75 212.53125 C9.86763672 212.53382813 8.98527344 212.53640625 8.07617188 212.5390625 C6.74102539 212.52746094 6.74102539 212.52746094 5.37890625 212.515625 C4.48494141 212.52335938 3.59097656 212.53109375 2.66992188 212.5390625 C1.78884766 212.53648437 0.90777344 212.53390625 0 212.53125 C-0.78060791 212.52899414 -1.56121582 212.52673828 -2.36547852 212.52441406 C-5.99180201 212.17595038 -9.52433799 211.14918894 -13.05859375 210.265625 C-13.05859375 141.625625 -13.05859375 72.985625 -13.05859375 2.265625 C-4.04282681 0.01168326 -4.04282681 0.01168326 0 0 Z " fill="#FDFCFE" transform="translate(122.05859375,21.734375)"/>
<path d="M0 0 C0 19.8 0 39.6 0 60 C-6.6 60 -13.2 60 -20 60 C-20 52.08 -20 44.16 -20 36 C-25.14768969 37.89090993 -25.14768969 37.89090993 -27 42 C-27.78375 42.61875 -28.5675 43.2375 -29.375 43.875 C-32.37390203 46.30268259 -33.91216616 48.75958874 -36 52 C-36.68578125 53.00675781 -37.3715625 54.01351562 -38.078125 55.05078125 C-48.89816424 71.30030061 -55.2171778 86.38895585 -57 106 C-38.19 106 -19.38 106 0 106 C0 147.91 0 189.82 0 233 C-5.48596845 231.43258044 -9.47399214 229.85840696 -14.1875 226.9375 C-14.84186035 226.53466797 -15.4962207 226.13183594 -16.17041016 225.71679688 C-36.12214744 213.26092777 -54.03565941 196.65207341 -64 175 C-64 174.34 -64 173.68 -64 173 C-60.22956968 172.85503492 -56.45985258 172.76604393 -52.6875 172.6875 C-51.0797168 172.6246582 -51.0797168 172.6246582 -49.43945312 172.56054688 C-48.41142578 172.54443359 -47.38339844 172.52832031 -46.32421875 172.51171875 C-45.37635498 172.48553467 -44.42849121 172.45935059 -43.4519043 172.43237305 C-41 173 -41 173 -39.27734375 175.38085938 C-38.85582031 176.24517578 -38.43429688 177.10949219 -38 178 C-30.29867871 188.905276 -30.29867871 188.905276 -20 197 C-20 173.57 -20 150.14 -20 126 C-39.14 126 -58.28 126 -78 126 C-78 92.27763365 -72.61472976 66.0593346 -52 39 C-51.38769531 38.16984375 -50.77539062 37.3396875 -50.14453125 36.484375 C-46.76180516 31.97407354 -43.43260052 28.46899171 -39 25 C-38.23558594 24.22785156 -37.47117188 23.45570312 -36.68359375 22.66015625 C-28.26189809 14.31201252 -18.9883252 8.59249485 -8.3359375 3.59375 C-0.81372549 0 -0.81372549 0 0 0 Z " fill="#695FD7" transform="translate(81,11)"/>
<path d="M0 0 C10.89 0 21.78 0 33 0 C37 4 37 4 37.421875 7.1640625 C36.91008201 11.81758766 35.72177467 15.94552432 34.25 20.375 C33.87101562 21.57382813 33.87101562 21.57382813 33.484375 22.796875 C28.72407733 37.5061948 21.6634988 49.77321984 11 61 C9.41056762 62.82733007 7.84704318 64.67325563 6.2890625 66.52734375 C4.91198932 68.10054553 3.55851709 69.60400207 2 71 C1.34 71 0.68 71 0 71 C0 47.57 0 24.14 0 0 Z " fill="#FCFCFC" transform="translate(195,138)"/>
<path d="M0 0 C2 0 2 0 4.0625 1.875 C5.04852269 2.91017924 6.02648133 3.95305291 7 5 C7.66386719 5.69351563 8.32773438 6.38703125 9.01171875 7.1015625 C21.17054979 20.13039716 29.23368971 34.25653873 34.75 51.125 C34.97284668 51.78153564 35.19569336 52.43807129 35.42529297 53.11450195 C36.94722632 57.90327181 37.52260774 61.97251356 37 67 C35.68 68.32 34.36 69.64 33 71 C22.11 71 11.22 71 0 71 C0 47.57 0 24.14 0 0 Z " fill="#FCFDFD" transform="translate(195,47)"/>
<path d="M0 0 C0.99 0.33 1.98 0.66 3 1 C2.01 1.495 2.01 1.495 1 2 C1 3.65 1 5.3 1 7 C2.65 7 4.3 7 6 7 C5.67 7.66 5.34 8.32 5 9 C4.34 9 3.68 9 3 9 C3.00444122 9.58944901 3.00888245 10.17889801 3.01345825 10.78620911 C3.05799346 16.96771805 3.0879907 23.14918079 3.10986328 29.33081055 C3.11986889 31.6322617 3.13347758 33.93370031 3.15087891 36.23510742 C3.17536779 39.55911369 3.18653784 42.88295066 3.1953125 46.20703125 C3.20563507 47.2220723 3.21595764 48.23711334 3.22659302 49.28291321 C3.22674408 50.26309921 3.22689514 51.24328522 3.22705078 52.25317383 C3.231492 53.09922684 3.23593323 53.94527985 3.24050903 54.81697083 C3.02993983 57.60375983 2.57581806 60.08051792 2 62.80578613 C0.5610366 70.45817163 0.73609094 78.10254775 0.77294922 85.85424805 C0.77351438 87.53072605 0.77319474 89.20720454 0.77206421 90.88368225 C0.77149377 95.403592 0.7831977 99.92339414 0.79721212 104.44327903 C0.80977133 109.17847371 0.81089406 113.91367124 0.81326294 118.64888 C0.81946252 127.60169382 0.83585262 136.5544584 0.85596192 145.50725061 C0.87836844 155.70561188 0.88932628 165.90397558 0.89935279 176.10235536 C0.92022029 197.06826432 0.95536649 218.03412905 1 239 C3.39531933 239.64779076 5.79121748 240.29329009 8.1875 240.9375 C8.86103516 241.11990234 9.53457031 241.30230469 10.22851562 241.49023438 C16.52802738 243.18034728 21.88451522 244.11751891 28.41796875 244.02734375 C29.85090915 244.01470949 31.28385198 244.00234766 32.71679688 243.99023438 C34.96191053 243.96532429 37.20689677 243.93721349 39.4519043 243.90405273 C41.62810096 243.87394959 43.8041311 243.85611835 45.98046875 243.83984375 C47.92796021 243.81458618 47.92796021 243.81458618 49.91479492 243.78881836 C53 244 53 244 55 246 C41.98155058 247.86192356 28.7397956 247.73502418 15.75 245.6875 C15.00129639 245.56987305 14.25259277 245.45224609 13.48120117 245.33105469 C8.00638268 244.37401701 3.38853416 242.79617805 -2 241 C-2 161.8 -2 82.6 -2 1 C-1.34 0.67 -0.68 0.34 0 0 Z " fill="#6A5FD1" transform="translate(91,7)"/>
<path d="M0 0 C1.32 0.33 2.64 0.66 4 1 C4 80.2 4 159.4 4 241 C2.68 241.33 1.36 241.66 0 242 C0 241.34 0 240.68 0 240 C0.99 240 1.98 240 3 240 C2.67 164.1 2.34 88.2 2 10 C1.67 83.59 1.34 157.18 1 233 C0.01 233 -0.98 233 -2 233 C-2 158.42 -2 83.84 -2 7 C-1.01 7 -0.02 7 1 7 C0.67 4.69 0.34 2.38 0 0 Z " fill="#6D65CB" transform="translate(163,7)"/>
<path d="M0 0 C0 69.63 0 139.26 0 211 C0.66 211.33 1.32 211.66 2 212 C0.5 213.5625 0.5 213.5625 -2 215 C-4.77437543 214.96823234 -7.25286467 214.50364148 -10 214 C-10 213.34 -10 212.68 -10 212 C-7.03 211.67 -4.06 211.34 -1 211 C-1 142.36 -1 73.72 -1 3 C-8.13252913 2.16357509 -8.13252913 2.16357509 -15.19140625 1.8671875 C-16.51495117 1.86525391 -16.51495117 1.86525391 -17.86523438 1.86328125 C-19.20038086 1.86908203 -19.20038086 1.86908203 -20.5625 1.875 C-21.90344727 1.86919922 -21.90344727 1.86919922 -23.27148438 1.86328125 C-24.15255859 1.86457031 -25.03363281 1.86585937 -25.94140625 1.8671875 C-26.72201416 1.86831543 -27.50262207 1.86944336 -28.30688477 1.87060547 C-31.88695243 2.04261488 -35.44348012 2.55543501 -39 3 C-39 71.64 -39 140.28 -39 211 C-36.36 211.33 -33.72 211.66 -31 212 C-31 212.33 -31 212.66 -31 213 C-34.3 213 -37.6 213 -41 213 C-42.36654596 210.26690809 -41.67764991 208.16647556 -41.26623559 205.2286067 C-40.84236668 201.68048196 -40.86226392 198.15525668 -40.87301636 194.58599854 C-40.87145637 193.77752558 -40.86989638 192.96905263 -40.86828911 192.1360805 C-40.86432486 189.44779772 -40.86745087 186.75957219 -40.87060547 184.07128906 C-40.86924944 182.13573677 -40.86746837 180.20018473 -40.86529541 178.26463318 C-40.86074629 173.0232635 -40.86249995 167.78191357 -40.8656745 162.54054356 C-40.86820967 157.05313121 -40.86585746 151.56572052 -40.86428833 146.07830811 C-40.86247064 136.86844581 -40.86486311 127.65859154 -40.86962891 118.44873047 C-40.87507722 107.79680243 -40.87330313 97.14489352 -40.8678025 86.49296594 C-40.8632677 77.34547011 -40.86262243 68.19798005 -40.86524117 59.05048347 C-40.86680108 53.58765076 -40.86700537 48.12482706 -40.86370468 42.66199493 C-40.86082043 37.53037683 -40.8628119 32.39878347 -40.86859894 27.26716805 C-40.86992327 25.3821498 -40.86953793 23.49712947 -40.86733627 21.61211205 C-40.86461218 19.04340204 -40.86802136 16.47477179 -40.87301636 13.90606689 C-40.87078564 13.1566584 -40.86855491 12.40724991 -40.86625659 11.63513207 C-40.87894176 8.28228795 -40.95265479 5.20520933 -42 2 C-30.33809621 -5.77460253 -14.01586403 0 0 0 Z " fill="#7168BB" transform="translate(148,21)"/>
<path d="M0 0 C0.99 0.33 1.98 0.66 3 1 C2.01 1.33 1.02 1.66 0 2 C-0.33 80.54 -0.66 159.08 -1 240 C1.97 240.33 4.94 240.66 8 241 C10.01558163 241.48314331 12.02352505 242.00006352 14.01953125 242.55859375 C21.94781238 244.45958065 29.59701614 244.26602839 37.6875 244.0625 C39.86211564 244.01456065 42.03645566 243.97138254 44.21138 243.94029236 C46.15503587 243.91172429 48.0984281 243.86661996 50.04174805 243.82055664 C53 244 53 244 55 246 C41.98155058 247.86192356 28.7397956 247.73502418 15.75 245.6875 C15.00129639 245.56987305 14.25259277 245.45224609 13.48120117 245.33105469 C8.00638268 244.37401701 3.38853416 242.79617805 -2 241 C-2 161.8 -2 82.6 -2 1 C-1.34 0.67 -0.68 0.34 0 0 Z " fill="#7972C2" transform="translate(91,7)"/>
<path d="M0 0 C3.00555165 2.9876004 3.96332151 4.48739487 4.27050781 8.78051758 C4.18624123 10.23659448 4.07978677 11.69152829 3.953125 13.14453125 C3.88810791 14.16903381 3.88810791 14.16903381 3.82177734 15.2142334 C3.65464544 17.74864517 3.4501343 20.28048058 3.25 22.8125 C2.8375 28.484375 2.425 34.15625 2 40 C21.14 40 40.28 40 60 40 C60 63.43 60 86.86 60 111 C59.01 110.67 58.02 110.34 57 110 C57.66 109.67 58.32 109.34 59 109 C59 86.56 59 64.12 59 41 C51.03875 41.144375 43.0775 41.28875 34.875 41.4375 C31.11971924 41.50215454 31.11971924 41.50215454 27.28857422 41.56811523 C25.29393859 41.60625796 23.29930919 41.64472876 21.3046875 41.68359375 C20.27738525 41.70006958 19.25008301 41.71654541 18.19165039 41.73352051 C14.22648982 41.81401915 10.50940988 41.90322605 6.60595703 42.64477539 C3.48498152 43.07020347 1.78299776 42.39149888 -1 41 C-1.02467609 35.48242521 -1.04284856 29.96488239 -1.05493164 24.44726562 C-1.05996763 22.56933025 -1.06679671 20.6913988 -1.07543945 18.81347656 C-1.08753713 16.11782868 -1.09323557 13.42223253 -1.09765625 10.7265625 C-1.10281754 9.88380768 -1.10797882 9.04105286 -1.11329651 8.17276001 C-1.11387171 2.22774341 -1.11387171 2.22774341 0 0 Z " fill="#E6E3FC" transform="translate(1,97)"/>
<path d="M0 0 C18.15 0 36.3 0 55 0 C55 41.25 55 82.5 55 125 C48.25 123.875 48.25 123.875 46 121 C48.31 121.33 50.62 121.66 53 122 C53.33 82.07 53.66 42.14 54 1 C36.18 1 18.36 1 0 1 C0 0.67 0 0.34 0 0 Z " fill="#6860C5" transform="translate(25,118)"/>
<path d="M0 0 C0.99 0.33 1.98 0.66 3 1 C3.07406517 5.5206339 3.12856045 10.040916 3.16479492 14.56201172 C3.17989711 16.10048574 3.20038046 17.63891661 3.22631836 19.17724609 C3.26264074 21.38650141 3.27971119 23.59518848 3.29296875 25.8046875 C3.30845261 26.49432587 3.32393646 27.18396423 3.33988953 27.89450073 C3.34057617 29.83544922 3.34057617 29.83544922 3 33 C2.01 33.66 1.02 34.32 0 35 C-0.25015873 38.58357241 -0.25015873 38.58357241 0 42 C-2 40 -2 40 -2.04003906 38.1081543 C-1.94948242 37.35445557 -1.85892578 36.60075684 -1.765625 35.82421875 C-1.68699219 34.99599609 -1.60835937 34.16777344 -1.52734375 33.31445312 C-1.34349083 31.57302932 -1.1431399 29.83326291 -0.92578125 28.09570312 C-0.35302198 23.42911589 -0.35302198 23.42911589 -2.32226562 19.42041016 C-3.85450131 18.24422571 -5.42583735 17.11944987 -7 16 C-7 14.68 -7 13.36 -7 12 C-5.47662626 10.80074833 -3.9511793 9.60368206 -2.40234375 8.4375 C-0.03403439 6.00981798 -0.12740441 3.24881236 0 0 Z " fill="#F8FAFC" transform="translate(253,114)"/>
<path d="M0 0 C1.40132675 -0.00945648 1.40132675 -0.00945648 2.83096313 -0.019104 C4.3326857 -0.01303131 4.3326857 -0.01303131 5.86474609 -0.00683594 C7.41396255 -0.00970612 7.41396255 -0.00970612 8.99447632 -0.01263428 C11.17486821 -0.01399407 13.35526824 -0.01031198 15.53564453 -0.00195312 C18.88250775 0.00877088 22.22883684 -0.00186671 25.57568359 -0.01464844 C27.69287228 -0.01332723 29.81006064 -0.01076565 31.92724609 -0.00683594 C32.93244293 -0.0108844 33.93763977 -0.01493286 34.97329712 -0.019104 C36.36516739 -0.00964752 36.36516739 -0.00964752 37.78515625 0 C38.60360016 0.00159119 39.42204407 0.00318237 40.26528931 0.00482178 C42.26318359 0.25878906 42.26318359 0.25878906 44.26318359 2.25878906 C45.25318359 2.91878906 46.24318359 3.57878906 47.26318359 4.25878906 C42.7144252 5.31663985 39.23234626 5.1756002 34.63818359 4.32128906 C22.3052272 2.22539936 8.97427367 2.16316769 -3.26416016 4.82128906 C-6.12361526 5.32722741 -8.8388672 5.32628133 -11.73681641 5.25878906 C-12.06681641 4.59878906 -12.39681641 3.93878906 -12.73681641 3.25878906 C-11.87056641 3.07316406 -11.87056641 3.07316406 -10.98681641 2.88378906 C-8.73847439 2.3534502 -8.73847439 2.3534502 -6.89224243 1.23590088 C-4.41567359 0.1132065 -2.71011465 0.00525867 0 0 Z " fill="#FBF8FD" transform="translate(110.73681640625,-0.2587890625)"/>
<path d="M0 0 C0.66 0 1.32 0 2 0 C1.67 23.1 1.34 46.2 1 70 C10.9 70 20.8 70 31 70 C32.80114365 65.49714088 33.19868503 63.86362905 33 59.3125 C32.875 56.42578125 32.875 56.42578125 33 54 C33.66 53.34 34.32 52.68 35 52 C36.74133175 57.22399526 37.54282269 61.48130264 37 67 C35.68 68.32 34.36 69.64 33 71 C22.11 71 11.22 71 0 71 C0 47.57 0 24.14 0 0 Z " fill="#E5E2FF" transform="translate(195,47)"/>
<path d="M0 0 C14.26863766 1.9983671 28.88216731 1.54876833 43.1875 0.0625 C42.589375 0.35125 41.99125 0.64 41.375 0.9375 C38.99422208 2.10992026 38.99422208 2.10992026 36.1875 4.0625 C34.04243469 4.30300903 34.04243469 4.30300903 31.5324707 4.28955078 C30.12134758 4.28932419 30.12134758 4.28932419 28.68171692 4.28909302 C27.66913315 4.27877045 26.65654938 4.26844788 25.61328125 4.2578125 C24.05482735 4.25356766 24.05482735 4.25356766 22.46488953 4.24923706 C19.14314303 4.23803282 15.82166515 4.21292764 12.5 4.1875 C10.24935285 4.17747052 7.99870148 4.16834462 5.74804688 4.16015625 C0.22777278 4.1380927 -5.29234442 4.10461271 -10.8125 4.0625 C-9.8225 3.4025 -8.8325 2.7425 -7.8125 2.0625 C-8.1425 1.4025 -8.4725 0.7425 -8.8125 0.0625 C-5.76761971 -1.45994015 -3.33964837 -0.51769625 0 0 Z " fill="#F5F2FD" transform="translate(107.8125,251.9375)"/>
<path d="M0 0 C5.18182304 7.77273456 5.87816025 18.89114899 7 28 C7.14695313 29.08861328 7.14695313 29.08861328 7.296875 30.19921875 C7.58457192 33.88333761 6.99148071 35.01053702 4.625 37.9375 C2 40 2 40 0 40 C0 41.32 0 42.64 0 44 C0.598125 44.268125 1.19625 44.53625 1.8125 44.8125 C4.14126747 46.07668805 5.49243283 46.8140276 7 49 C7.39956892 53.39525816 7.11118375 56.17295376 5 60 C4.99742187 59.26394531 4.99484375 58.52789062 4.9921875 57.76953125 C5.0021039 52.15338326 5.0021039 52.15338326 2.5625 47.3671875 C2.005625 46.97789062 1.44875 46.58859375 0.875 46.1875 C-0.07375 45.465625 -1.0225 44.74375 -2 44 C-1.875 40.6875 -1.875 40.6875 -1 38 C0.485 37.505 0.485 37.505 2 37 C2 36.01 2 35.02 2 34 C2.66 34 3.32 34 4 34 C4.495 29.545 4.495 29.545 5 25 C4.34 25 3.68 25 3 25 C2.49538375 21.58399853 1.99711424 18.1671006 1.5 14.75 C1.35691406 13.78191406 1.21382812 12.81382813 1.06640625 11.81640625 C0.93105469 10.88183594 0.79570312 9.94726562 0.65625 8.984375 C0.53056641 8.12553711 0.40488281 7.26669922 0.27539062 6.38183594 C0 4 0 4 0 0 Z " fill="#6B63BF" transform="translate(246,86)"/>
<path d="M0 0 C0.33 0 0.66 0 1 0 C1.33 8.25 1.66 16.5 2 25 C19.49 25.33 36.98 25.66 55 26 C55 26.33 55 26.66 55 27 C36.52 27 18.04 27 -1 27 C-1 4 -1 4 0 0 Z " fill="#6D63BF" transform="translate(4,110)"/>
<path d="M0 0 C3.77043032 -0.14496508 7.54014742 -0.23395607 11.3125 -0.3125 C12.9202832 -0.3753418 12.9202832 -0.3753418 14.56054688 -0.43945312 C15.58857422 -0.45556641 16.61660156 -0.47167969 17.67578125 -0.48828125 C18.62364502 -0.51446533 19.57150879 -0.54064941 20.5480957 -0.56762695 C23 0 23 0 24.71386719 2.37426758 C25.13829102 3.24075928 25.56271484 4.10725098 26 5 C27.28464036 6.68823374 28.59819869 8.35479301 29.9375 10 C30.60652344 10.825 31.27554688 11.65 31.96484375 12.5 C32.63644531 13.325 33.30804688 14.15 34 15 C35.33474337 16.66553766 36.66848379 18.33188126 38 20 C36.68 20.33 35.36 20.66 34 21 C33.67 19.35 33.34 17.7 33 16 C32.071875 15.938125 31.14375 15.87625 30.1875 15.8125 C27 15 27 15 25.25 12.5625 C24.8375 11.716875 24.425 10.87125 24 10 C23.34 9.34 22.68 8.68 22 8 C21.875 5.375 21.875 5.375 22 3 C21.34 3 20.68 3 20 3 C20 2.34 20 1.68 20 1 C11.585 1.495 11.585 1.495 3 2 C2.67 3.32 2.34 4.64 2 6 C1.34 4.02 0.68 2.04 0 0 Z " fill="#7169C9" transform="translate(17,184)"/>
<path d="M0 0 C10.89 0 21.78 0 33 0 C33.495 0.99 33.495 0.99 34 2 C32.0625 2.5625 32.0625 2.5625 30 3 C29.67 2.67 29.34 2.34 29 2 C15.14 1.505 15.14 1.505 1 1 C1.33 24.1 1.66 47.2 2 71 C1.34 71 0.68 71 0 71 C0 47.57 0 24.14 0 0 Z " fill="#E0DDFE" transform="translate(195,138)"/>
<path d="M0 0 C10.89 0 21.78 0 33 0 C32 3 32 3 30 4 C27.30170926 4.09791023 24.63515539 4.1390625 21.9375 4.125 C21.19177734 4.12886719 20.44605469 4.13273437 19.67773438 4.13671875 C14.12663501 4.12663501 14.12663501 4.12663501 13 3 C9.89850354 2.71599669 6.79707354 2.5512529 3.6875 2.37890625 C2.3571875 2.19134766 2.3571875 2.19134766 1 2 C0.67 1.34 0.34 0.68 0 0 Z " fill="#6E62CB" transform="translate(195,118)"/>
<path d="M0 0 C0.33 0.66 0.66 1.32 1 2 C-0.33718008 5.87782223 -3.15532692 8.15532692 -6 11 C-7.68236531 13.72382956 -8 14.73884371 -8 18 C-8.64674898 20.86498454 -9.50485905 23.46428477 -11 26 C-14.1875 27.5 -14.1875 27.5 -17 28 C-17 28.66 -17 29.32 -17 30 C-17.66 30 -18.32 30 -19 30 C-15.57549291 18.4874611 -7.74677492 8.94824233 0 0 Z " fill="#6F65D9" transform="translate(34,44)"/>
<path d="M0 0 C3.3125 -0.25 3.3125 -0.25 7 0 C8.9375 2 8.9375 2 10 4 C8.02 4.66 6.04 5.32 4 6 C4 5.34 4 4.68 4 4 C2.68 4 1.36 4 0 4 C1.06523289 7.01815987 2.23706907 9.34482774 4.0625 12 C5.90050564 14.84594422 6.60979904 16.68329188 7 20 C3.69955174 16.922555 1.24183581 13.63121175 -1.25 9.875 C-1.95640625 8.82054687 -2.6628125 7.76609375 -3.390625 6.6796875 C-5 4 -5 4 -5 2 C-3.68 2.33 -2.36 2.66 -1 3 C-0.67 2.01 -0.34 1.02 0 0 Z " fill="#685FD0" transform="translate(25,188)"/>
<path d="M0 0 C0.33 0 0.66 0 1 0 C1 5.94 1 11.88 1 18 C1.66 18 2.32 18 3 18 C3 18.99 3 19.98 3 21 C8.28 21.33 13.56 21.66 19 22 C19 22.33 19 22.66 19 23 C12.73 23 6.46 23 0 23 C0 15.41 0 7.82 0 0 Z " fill="#7067B9" transform="translate(61,48)"/>
<path d="M0 0 C0.99 0.33 1.98 0.66 3 1 C1.35 2.65 -0.3 4.3 -2 6 C-0.68 5.67 0.64 5.34 2 5 C2.75 6.75 2.75 6.75 3 9 C1.0625 11.25 1.0625 11.25 -1 13 C-3.5 11.25 -3.5 11.25 -6 9 C-6 5 -6 5 -3.1875 2.1875 C-2.135625 1.465625 -1.08375 0.74375 0 0 Z " fill="#F4F8F8" transform="translate(252,121)"/>
<path d="M0 0 C0.99 0.99 1.98 1.98 3 3 C2.31164062 4.14275391 2.31164062 4.14275391 1.609375 5.30859375 C-2.00954456 11.39841426 -5.33058282 17.43422856 -8 24 C-8.66 22.68 -9.32 21.36 -10 20 C-9.34 19.67 -8.68 19.34 -8 19 C-7.19875376 17.05329654 -7.19875376 17.05329654 -6.5625 14.75 C-5.42887889 11.13157302 -4.04888073 8.20694376 -2 5 C-1.30177383 3.34630643 -0.62501395 1.68272986 0 0 Z " fill="#6D64C9" transform="translate(39,64)"/>
<path d="M0 0 C0.66 0 1.32 0 2 0 C4.61173635 2.61173635 4.2981789 3.87198888 4.3125 7.5 C4.32925781 8.4796875 4.34601563 9.459375 4.36328125 10.46875 C4.18345703 11.72171875 4.18345703 11.72171875 4 13 C3.01 13.66 2.02 14.32 1 15 C0.74984127 18.58357241 0.74984127 18.58357241 1 22 C-1 20 -1 20 -1.13525391 17.93701172 C-1.08288574 17.10959473 -1.03051758 16.28217773 -0.9765625 15.4296875 C-0.925 14.53378906 -0.8734375 13.63789063 -0.8203125 12.71484375 C-0.75585938 11.77769531 -0.69140625 10.84054688 -0.625 9.875 C-0.56828125 8.93011719 -0.5115625 7.98523438 -0.453125 7.01171875 C-0.31142903 4.67373519 -0.16000217 2.33679056 0 0 Z " fill="#EEEDFD" transform="translate(252,134)"/>
<path d="M0 0 C1.80714406 3.30508096 1.98244126 4.39771538 1 8 C1.38567131 10.68149993 1.38567131 10.68149993 2 13 C-0.64738916 14.4606285 -1.89448334 15 -5 15 C-4.37321829 11.33827525 -3.35548154 8.1181005 -1.9375 4.6875 C-1.39416016 3.36298828 -1.39416016 3.36298828 -0.83984375 2.01171875 C-0.56269531 1.34785156 -0.28554687 0.68398437 0 0 Z " fill="#7269CC" transform="translate(14,74)"/>
<path d="M0 0 C0.66 0 1.32 0 2 0 C-0.21379401 7.37931337 -3.1123969 14.32934955 -7 21 C-7.66 21.33 -8.32 21.66 -9 22 C-8.67 19.69 -8.34 17.38 -8 15 C-7.01 14.67 -6.02 14.34 -5 14 C-3.96683512 11.20827761 -3.96683512 11.20827761 -3.3125 7.9375 C-3.06113281 6.83277344 -2.80976563 5.72804687 -2.55078125 4.58984375 C-2.36902344 3.73519531 -2.18726563 2.88054687 -2 2 C-1.34 2 -0.68 2 0 2 C0 1.34 0 0.68 0 0 Z " fill="#6E67C2" transform="translate(244,170)"/>
<path d="M0 0 C2.99381354 2.80466193 5.1993621 5.61184269 7.3125 9.125 C8.11107422 10.42824219 8.11107422 10.42824219 8.92578125 11.7578125 C9.28027344 12.49773437 9.63476562 13.23765625 10 14 C9.67 14.66 9.34 15.32 9 16 C8.38125 15.505 7.7625 15.01 7.125 14.5 C5.16119096 12.80777227 5.16119096 12.80777227 3 13 C2.49689942 11.2092015 1.99761372 9.41733089 1.5 7.625 C1.2215625 6.62726563 0.943125 5.62953125 0.65625 4.6015625 C0 2 0 2 0 0 Z " fill="#EEEFF8" transform="translate(213,66)"/>
<path d="M0 0 C2 2 2 2 2.23046875 4.3125 C2.21628906 5.199375 2.20210937 6.08625 2.1875 7 C2.18105469 7.886875 2.17460937 8.77375 2.16796875 9.6875 C2 12 2 12 1 14 C-1.0625 14.625 -1.0625 14.625 -3 15 C-2.35812082 9.86496656 -1.31727753 5.0056546 0 0 Z " fill="#726DC7" transform="translate(8,89)"/>
<path d="M0 0 C0.92758232 2.50447226 1.06415244 3.77838249 0.3125 6.375 C-1.23021234 9.46042468 -2.94020526 12.23215081 -5 15 C-5.66 15 -6.32 15 -7 15 C-7.99 17.475 -7.99 17.475 -9 20 C-9.99 19.67 -10.98 19.34 -12 19 C-11.41605469 18.29101562 -10.83210937 17.58203125 -10.23046875 16.8515625 C-8.08289258 14.10597475 -6.1802328 11.3163753 -4.3125 8.375 C-3.71050781 7.43398437 -3.10851562 6.49296875 -2.48828125 5.5234375 C-0.88665995 3.00924299 -0.88665995 3.00924299 0 0 Z " fill="#736BC7" transform="translate(223,173)"/>
<path d="M0 0 C0.66 0 1.32 0 2 0 C2.33 0.99 2.66 1.98 3 3 C2.67 3.66 2.34 4.32 2 5 C1.34 5 0.68 5 0 5 C-0.10183594 5.57234375 -0.20367187 6.1446875 -0.30859375 6.734375 C-1.12291016 9.40275646 -2.34673122 11.05965688 -4.0625 13.25 C-4.61035156 13.95640625 -5.15820312 14.6628125 -5.72265625 15.390625 C-6.14417969 15.92171875 -6.56570312 16.4528125 -7 17 C-8 14 -8 14 -7 11 C-6.34 11 -5.68 11 -5 11 C-5 10.01 -5 9.02 -5 8 C-4.34 7.67 -3.68 7.34 -3 7 C-1.94647157 4.69034152 -0.94280904 2.3570226 0 0 Z " fill="#7168C7" transform="translate(231,193)"/>
<path d="M0 0 C1.32 0 2.64 0 4 0 C4.33 1.32 4.66 2.64 5 4 C5.928125 4.0928125 5.928125 4.0928125 6.875 4.1875 C9 5 9 5 10.3125 7.4375 C11 10 11 10 10 12 C9.401875 11.21625 8.80375 10.4325 8.1875 9.625 C6.08914751 6.85425677 6.08914751 6.85425677 3 5 C3 4.34 3 3.68 3 3 C2.01 3.33 1.02 3.66 0 4 C-0.66 3.34 -1.32 2.68 -2 2 C-1.34 1.34 -0.68 0.68 0 0 Z " fill="#7066D8" transform="translate(194,44)"/>
<path d="M0 0 C4.35779152 6.53668728 5.25768373 15.27991084 6 23 C5.34 23 4.68 23 4 23 C0.96846681 15.35526412 0.3376774 8.185766 0 0 Z " fill="#7571C1" transform="translate(246,86)"/>
<path d="M0 0 C0.99 0.33 1.98 0.66 3 1 C2.38722388 3.96175123 1.74627478 5.38058783 0 8 C0.33 8.66 0.66 9.32 1 10 C-1.66666667 10 -4.33333333 10 -7 10 C-6.57847656 9.52949219 -6.15695313 9.05898437 -5.72265625 8.57421875 C-5.17480469 7.95160156 -4.62695312 7.32898438 -4.0625 6.6875 C-3.51722656 6.07261719 -2.97195312 5.45773438 -2.41015625 4.82421875 C-0.79918441 2.94758042 -0.79918441 2.94758042 0 0 Z " fill="#EDEDF8" transform="translate(231,198)"/>
<path d="M0 0 C10.56 0 21.12 0 32 0 C32.495 0.99 32.495 0.99 33 2 C31.0625 2.5625 31.0625 2.5625 29 3 C28.67 2.67 28.34 2.34 28 2 C25.9291528 1.8415735 23.85321971 1.74875578 21.77734375 1.68359375 C19.88725586 1.62075195 19.88725586 1.62075195 17.95898438 1.55664062 C16.61849264 1.51682404 15.2779978 1.47711186 13.9375 1.4375 C12.59308477 1.39431958 11.2486834 1.35070544 9.90429688 1.30664062 C6.6029766 1.20014642 3.30157764 1.0981354 0 1 C0 0.67 0 0.34 0 0 Z " fill="#EBE7FF" transform="translate(196,138)"/>
<path d="M0 0 C1.66666667 1.66666667 3.33333333 3.33333333 5 5 C5.8971875 5.804375 5.8971875 5.804375 6.8125 6.625 C8 8 8 8 8 11 C8.66 11 9.32 11 10 11 C10.33 11.99 10.66 12.98 11 14 C10.01 14.495 10.01 14.495 9 15 C9 14.34 9 13.68 9 13 C8.01 12.67 7.02 12.34 6 12 C6 11.01 6 10.02 6 9 C5.38125 8.814375 4.7625 8.62875 4.125 8.4375 C0.94397134 6.28562767 0.80548053 3.62466237 0 0 Z " fill="#6F67C5" transform="translate(223,47)"/>
<path d="M0 0 C-1.62017842 1.33918806 -3.24629343 2.6711969 -4.875 4 C-6.23238281 5.11375 -6.23238281 5.11375 -7.6171875 6.25 C-10 8 -10 8 -12 8 C-11.67 6.68 -11.34 5.36 -11 4 C-10.01 4 -9.02 4 -8 4 C-8 2.68 -8 1.36 -8 0 C-4.71303767 -0.79953138 -3.28976808 -1.09658936 0 0 Z " fill="#7067C9" transform="translate(208,225)"/>
<path d="M0 0 C0.66 0 1.32 0 2 0 C1.42978625 6.95660771 -0.01302694 13.31427305 -2 20 C-3.125 18.3125 -3.125 18.3125 -4 16 C-3.1953125 13.61328125 -3.1953125 13.61328125 -2 11 C-1.57851125 9.07207923 -1.20323562 7.1334683 -0.875 5.1875 C-0.70742187 4.21167969 -0.53984375 3.23585937 -0.3671875 2.23046875 C-0.24601563 1.49441406 -0.12484375 0.75835937 0 0 Z " fill="#6F6ABC" transform="translate(249,149)"/>
<path d="M0 0 C0 4.0333534 -1.60879918 5.83517538 -4 9 C-4.66 9 -5.32 9 -6 9 C-6.33 10.65 -6.66 12.3 -7 14 C-8.32 14 -9.64 14 -11 14 C-9.42219077 10.28954753 -7.09296752 7.70093616 -4.375 4.75 C-3.55773437 3.85796875 -2.74046875 2.9659375 -1.8984375 2.046875 C-1.27195313 1.37140625 -0.64546875 0.6959375 0 0 Z " fill="#716CBE" transform="translate(210,194)"/>
<path d="M0 0 C0.33 0 0.66 0 1 0 C1 5.94 1 11.88 1 18 C-5.75 16.875 -5.75 16.875 -8 14 C-5.69 14.33 -3.38 14.66 -1 15 C-0.67 10.05 -0.34 5.1 0 0 Z " fill="#7469C8" transform="translate(79,225)"/>
<path d="M0 0 C7.26 0 14.52 0 22 0 C22 0.99 22 1.98 22 3 C21.34 3 20.68 3 20 3 C20 2.34 20 1.68 20 1 C11.585 1.495 11.585 1.495 3 2 C2.67 3.32 2.34 4.64 2 6 C1.34 4.02 0.68 2.04 0 0 Z " fill="#6C64BB" transform="translate(17,184)"/>
<path d="M0 0 C0.33 0.66 0.66 1.32 1 2 C-0.3377878 5.87958462 -3.15328565 8.15328565 -6 11 C-6.8353125 12.3921875 -6.8353125 12.3921875 -7.6875 13.8125 C-8.120625 14.534375 -8.55375 15.25625 -9 16 C-9.66 16 -10.32 16 -11 16 C-9.55049595 11.64352355 -7.32252888 8.68242711 -4.375 5.1875 C-3.55773437 4.21167969 -2.74046875 3.23585937 -1.8984375 2.23046875 C-1.27195312 1.49441406 -0.64546875 0.75835937 0 0 Z " fill="#7B73C6" transform="translate(34,44)"/>
<path d="M0 0 C3.81210679 1.70887546 6.29675571 3.32436854 7.94921875 7.26171875 C8.31466797 8.46248047 8.31466797 8.46248047 8.6875 9.6875 C9.06455078 10.89986328 9.06455078 10.89986328 9.44921875 12.13671875 C9.63097656 12.75160156 9.81273437 13.36648437 10 14 C5.82317696 10.30511808 2.88042339 5.73349578 0 1 C0 0.67 0 0.34 0 0 Z " fill="#726BBF" transform="translate(22,194)"/>
<path d="M0 0 C-2.58926331 2.58926331 -4.02705279 2.37398043 -7.625 2.625 C-8.62789063 2.69976563 -9.63078125 2.77453125 -10.6640625 2.8515625 C-11.82035156 2.92503906 -11.82035156 2.92503906 -13 3 C-13.33 2.34 -13.66 1.68 -14 1 C-13.13375 0.814375 -13.13375 0.814375 -12.25 0.625 C-9.97239566 0.1092397 -9.97239566 0.1092397 -8.125 -1.1875 C-4.9821642 -2.38917251 -3.01469264 -1.23328335 0 0 Z " fill="#E8E6FB" transform="translate(112,2)"/>
<path d="M0 0 C0.66 1.32 1.32 2.64 2 4 C1.67 4 1.34 4 1 4 C0.67 6.31 0.34 8.62 0 11 C0.66 11 1.32 11 2 11 C2 13.31 2 15.62 2 18 C1.01 18 0.02 18 -1 18 C-1.02684312 15.18743719 -1.04676188 12.37512759 -1.0625 9.5625 C-1.07087891 8.76005859 -1.07925781 7.95761719 -1.08789062 7.13085938 C-1.0965143 5.08704779 -1.0522815 3.04316098 -1 1 C-0.67 0.67 -0.34 0.34 0 0 Z " fill="#F4F7F6" transform="translate(170,101)"/>
<path d="M0 0 C5.4611399 0.96891192 5.4611399 0.96891192 8 2 C9.5 4.625 9.5 4.625 10 7 C6.27566618 5.7874262 2.62197194 4.49140021 -1 3 C-0.67 2.01 -0.34 1.02 0 0 Z " fill="#F2EEFB" transform="translate(176,9)"/>
<path d="M0 0 C0.66 0 1.32 0 2 0 C2.33 1.98 2.66 3.96 3 6 C0.525 7.485 0.525 7.485 -2 9 C-2.66 8.34 -3.32 7.68 -4 7 C-3.525625 6.5875 -3.05125 6.175 -2.5625 5.75 C-0.83733482 3.817815 -0.43415125 2.51807725 0 0 Z " fill="#7167C8" transform="translate(232,110)"/>
<path d="M0 0 C2.38564077 0.57584432 4.66682784 1.22227595 7 2 C8.25 4.375 8.25 4.375 9 7 C8.67 7.99 8.34 8.98 8 10 C6.66370254 8.52351062 5.33103329 7.0437367 4 5.5625 C3.2575 4.73878906 2.515 3.91507813 1.75 3.06640625 C0 1 0 1 0 0 Z " fill="#7671C6" transform="translate(205,56)"/>
<path d="M0 0 C0.33 0.66 0.66 1.32 1 2 C1.66 2.33 2.32 2.66 3 3 C0.36 4.65 -2.28 6.3 -5 8 C-5.66 7.34 -6.32 6.68 -7 6 C-6.34 6 -5.68 6 -5 6 C-4.731875 5.38125 -4.46375 4.7625 -4.1875 4.125 C-3 2 -3 2 0 0 Z " fill="#F0F0FC" transform="translate(56,20)"/>
<path d="M0 0 C0.99 0.33 1.98 0.66 3 1 C-0.52127761 5.5929708 -4.57747597 6.11941917 -10 7 C-6.96803331 3.78315729 -3.95336778 1.97668389 0 0 Z " fill="#7873CA" transform="translate(69,16)"/>
<path d="M0 0 C-1.5 2.0625 -1.5 2.0625 -4 4 C-6.82406647 4.05928384 -9.20225927 3.55954815 -12 3 C-12 2.34 -12 1.68 -12 1 C-7.93631321 0.22596442 -4.13574827 -0.0984702 0 0 Z " fill="#736BC9" transform="translate(150,232)"/>
<path d="M0 0 C0.99 0.33 1.98 0.66 3 1 C2.175 1.721875 1.35 2.44375 0.5 3.1875 C-2.24407806 5.72917366 -2.24407806 5.72917366 -2.3125 8.8125 C-2.1578125 9.8953125 -2.1578125 9.8953125 -2 11 C-3.32 10.34 -4.64 9.68 -6 9 C-6 5 -6 5 -3.1875 2.1875 C-2.135625 1.465625 -1.08375 0.74375 0 0 Z " fill="#DBD9FB" transform="translate(252,121)"/>
<path d="M0 0 C1.78409802 3.06246747 2.22880021 5.22079273 2.125 8.75 C2.10695312 9.54921875 2.08890625 10.3484375 2.0703125 11.171875 C2.04710937 11.77515625 2.02390625 12.3784375 2 13 C1.34 13 0.68 13 0 13 C-0.19466332 11.20909747 -0.38051213 9.41723495 -0.5625 7.625 C-0.66691406 6.62726563 -0.77132812 5.62953125 -0.87890625 4.6015625 C-1 2 -1 2 0 0 Z " fill="#F3F1FD" transform="translate(229,99)"/>
<path d="M0 0 C3.3 0 6.6 0 10 0 C10 2.31 10 4.62 10 7 C9.67 5.68 9.34 4.36 9 3 C6.03 2.67 3.06 2.34 0 2 C0 1.34 0 0.68 0 0 Z " fill="#756EC6" transform="translate(138,21)"/>
<path d="M0 0 C5.47932789 1.54545146 10.11429181 4.15543212 15 7 C15 7.66 15 8.32 15 9 C11.32305352 7.62859834 8.04681411 5.96304199 4.6875 3.9375 C3.80449219 3.41027344 2.92148437 2.88304687 2.01171875 2.33984375 C1.34785156 1.89769531 0.68398438 1.45554688 0 1 C0 0.67 0 0.34 0 0 Z " fill="#7A76C4" transform="translate(56,230)"/>
<path d="M0 0 C3.4375 0.8125 3.4375 0.8125 7 2 C7.33 2.99 7.66 3.98 8 5 C8.99 5.33 9.98 5.66 11 6 C9.234375 6.6796875 9.234375 6.6796875 7 7 C5.078125 5.8203125 5.078125 5.8203125 3.25 4.125 C2.63640625 3.57070312 2.0228125 3.01640625 1.390625 2.4453125 C0 1 0 1 0 0 Z " fill="#756DC7" transform="translate(46,222)"/>
<path d="M0 0 C0.33 0.66 0.66 1.32 1 2 C-0.41377782 2.36552803 -1.83120576 2.71695495 -3.25 3.0625 C-4.03890625 3.25972656 -4.8278125 3.45695313 -5.640625 3.66015625 C-8.10394822 4.01497267 -9.65604132 3.76877544 -12 3 C-4.71428571 -0.42857143 -4.71428571 -0.42857143 0 0 Z " fill="#6E6AC2" transform="translate(159,248)"/>
<path d="M0 0 C1.65 0 3.3 0 5 0 C4.04578192 1.14926266 3.08647955 2.29430541 2.125 3.4375 C1.59132812 4.07558594 1.05765625 4.71367187 0.5078125 5.37109375 C-1 7 -1 7 -3 8 C-3 6.68 -3 5.36 -3 4 C-2.34 4 -1.68 4 -1 4 C-0.67 2.68 -0.34 1.36 0 0 Z " fill="#746CC1" transform="translate(213,215)"/>
<path d="M0 0 C0.33 0 0.66 0 1 0 C1.48979592 7.34693878 1.48979592 7.34693878 -0.875 10.5 C-3 12 -3 12 -5 12 C-4.75 10.125 -4.75 10.125 -4 8 C-1.9375 6.75 -1.9375 6.75 0 6 C0 4.02 0 2.04 0 0 Z " fill="#E5DEFD" transform="translate(231,106)"/>
<path d="M0 0 C0.33 0.66 0.66 1.32 1 2 C3.52733235 2.65555119 3.52733235 2.65555119 6 3 C5.34 4.98 4.68 6.96 4 9 C1 5.25 1 5.25 1 3 C0.34 3 -0.32 3 -1 3 C-0.67 2.01 -0.34 1.02 0 0 Z " fill="#EAEAFB" transform="translate(232,55)"/>
<path d="M0 0 C0.66 0.33 1.32 0.66 2 1 C0.68 3.31 -0.64 5.62 -2 8 C-3.32 7.67 -4.64 7.34 -6 7 C-4.60667426 3.63279613 -3.0210714 2.0140476 0 0 Z " fill="#7066C8" transform="translate(56,24)"/>
<path d="M0 0 C1.60495567 0.11442461 3.20898119 0.24194694 4.8125 0.375 C5.70582031 0.44460937 6.59914062 0.51421875 7.51953125 0.5859375 C10 1 10 1 13 3 C12.67 3.33 12.34 3.66 12 4 C6.81996929 3.66032586 4.04745599 3.3834913 0 0 Z " fill="#6E6AC2" transform="translate(147,4)"/>
<path d="M0 0 C0.33 0 0.66 0 1 0 C1.33 2.31 1.66 4.62 2 7 C4.64 7.66 7.28 8.32 10 9 C10 9.33 10 9.66 10 10 C6.7 10 3.4 10 0 10 C-1.6415049 6.7169902 -0.51888624 3.57454967 0 0 Z " fill="#746DC8" transform="translate(107,224)"/>
<path d="M0 0 C1.54286547 2.31429821 2.89992755 4.54571028 4.1875 7 C4.55230469 7.680625 4.91710937 8.36125 5.29296875 9.0625 C6 11 6 11 5 14 C1.535 8.06 1.535 8.06 -2 2 C-1.34 2 -0.68 2 0 2 C0 1.34 0 0.68 0 0 Z " fill="#6F66C7" transform="translate(217,66)"/>
<path d="M0 0 C0.99 0.33 1.98 0.66 3 1 C3 2.32 3 3.64 3 5 C1.68 5.33 0.36 5.66 -1 6 C-1 6.66 -1 7.32 -1 8 C-1.66 8 -2.32 8 -3 8 C-1.125 2.25 -1.125 2.25 0 0 Z " fill="#736DCB" transform="translate(18,66)"/>
<path d="M0 0 C1.32 0.33 2.64 0.66 4 1 C3.67 3.31 3.34 5.62 3 8 C1.5 6.8125 1.5 6.8125 0 5 C-0.1875 2.3125 -0.1875 2.3125 0 0 Z " fill="#6959E3" transform="translate(246,135)"/>
<path d="M0 0 C0.66 0.99 1.32 1.98 2 3 C0.41641358 6.16717283 -0.45263699 7.73268318 -3.6875 9.3125 C-4.450625 9.539375 -5.21375 9.76625 -6 10 C-4.34832443 6.4213696 -2.21713508 3.25179812 0 0 Z " fill="#E1E2FB" transform="translate(49,56)"/>
<path d="M0 0 C0.33 0 0.66 0 1 0 C1 1.98 1 3.96 1 6 C3.31 6 5.62 6 8 6 C6.25 7.5625 6.25 7.5625 4 9 C1.75 8.6875 1.75 8.6875 0 8 C0 5.36 0 2.72 0 0 Z " fill="#7062C6" transform="translate(176,234)"/>
<path d="M0 0 C0.66 0.33 1.32 0.66 2 1 C-2.30769231 5.92307692 -2.30769231 5.92307692 -5.8125 6.3125 C-6.8953125 6.1578125 -6.8953125 6.1578125 -8 6 C-8 5.34 -8 4.68 -8 4 C-6.71349294 3.30289269 -5.42059335 2.61757124 -4.125 1.9375 C-3.40570313 1.55464844 -2.68640625 1.17179688 -1.9453125 0.77734375 C-1.30335938 0.52082031 -0.66140625 0.26429688 0 0 Z " fill="#EFE9FD" transform="translate(186,239)"/>
<path d="M0 0 C2.97 1.65 5.94 3.3 9 5 C8.34 5.66 7.68 6.32 7 7 C6.01 7 5.02 7 4 7 C4 6.01 4 5.02 4 4 C2.68 3.34 1.36 2.68 0 2 C0 1.34 0 0.68 0 0 Z " fill="#7168C7" transform="translate(196,23)"/>
<path d="M0 0 C1 2 1 2 0.9375 4 C0 6 0 6 -3.0625 7.25 C-4.031875 7.4975 -5.00125 7.745 -6 8 C-5.34 6.02 -4.68 4.04 -4 2 C-3.01 2.33 -2.02 2.66 -1 3 C-0.67 2.01 -0.34 1.02 0 0 Z " fill="#7269DA" transform="translate(198,206)"/>
<path d="M0 0 C0.66 0.66 1.32 1.32 2 2 C0.68 4.97 -0.64 7.94 -2 11 C-2.66 9.68 -3.32 8.36 -4 7 C-3.34 6.67 -2.68 6.34 -2 6 C-1.27306096 4.02111039 -0.60183749 2.02045442 0 0 Z " fill="#7B70CD" transform="translate(33,77)"/>
<path d="M0 0 C2.61500768 2.36595933 4.38999603 4.86049226 6 8 C5.67 8.66 5.34 9.32 5 10 C0.07692308 5.69230769 0.07692308 5.69230769 -0.3125 2.1875 C-0.209375 1.465625 -0.10625 0.74375 0 0 Z " fill="#E3E0FB" transform="translate(217,72)"/>
<path d="M0 0 C0.99 0.33 1.98 0.66 3 1 C3.33 1.99 3.66 2.98 4 4 C3.01 4.33 2.02 4.66 1 5 C0.67 5.66 0.34 6.32 0 7 C-0.99 6.01 -1.98 5.02 -3 4 C-2.34 3.67 -1.68 3.34 -1 3 C-0.67 2.01 -0.34 1.02 0 0 Z " fill="#EEF1F1" transform="translate(199,18)"/>
<path d="M0 0 C-0.99 0 -1.98 0 -3 0 C-2.04134491 2.33075929 -2.04134491 2.33075929 1 4 C-1.97 4 -4.94 4 -8 4 C-7.01 3.34 -6.02 2.68 -5 2 C-5.33 1.34 -5.66 0.68 -6 0 C-3.50907189 -1.24546405 -2.58919267 -0.7767578 0 0 Z " fill="#EDEDF5" transform="translate(105,252)"/>
<path d="M0 0 C1.65 0 3.3 0 5 0 C4.01 1.485 4.01 1.485 3 3 C3.33 3.66 3.66 4.32 4 5 C3.34 5 2.68 5 2 5 C1.67 5.66 1.34 6.32 1 7 C0.34 6.67 -0.32 6.34 -1 6 C-0.67 4.02 -0.34 2.04 0 0 Z " fill="#7165D6" transform="translate(217,208)"/>
<path d="M0 0 C0.66 0.66 1.32 1.32 2 2 C1.2575 3.175625 1.2575 3.175625 0.5 4.375 C-1.16537965 6.78552327 -1.16537965 6.78552327 -1 9 C-2.98 9.99 -2.98 9.99 -5 11 C-3.77472971 6.94718288 -2.30119506 3.55639236 0 0 Z " fill="#E3E4FC" transform="translate(238,187)"/>
<path d="M0 0 C1.32 0 2.64 0 4 0 C4.66 1.32 5.32 2.64 6 4 C5.01 5.485 5.01 5.485 4 7 C0 2.25 0 2.25 0 0 Z " fill="#EEE8FD" transform="translate(40,185)"/>
<path d="M0 0 C0.66 0 1.32 0 2 0 C2 1.65 2 3.3 2 5 C0.35 5.66 -1.3 6.32 -3 7 C-3 6.34 -3 5.68 -3 5 C-2.34 5 -1.68 5 -1 5 C-0.67 3.35 -0.34 1.7 0 0 Z " fill="#FCFCED" transform="translate(227,107)"/>
<path d="M0 0 C1.875 0.1875 1.875 0.1875 4 1 C5.3125 3.4375 5.3125 3.4375 6 6 C5.67 6.66 5.34 7.32 5 8 C0 2.25 0 2.25 0 0 Z " fill="#726BC1" transform="translate(199,48)"/>
<path d="M0 0 C-0.57584432 2.38564077 -1.22227595 4.66682784 -2 7 C-2.99 7.33 -3.98 7.66 -5 8 C-5.75 6.25 -5.75 6.25 -6 4 C-2.77777778 0 -2.77777778 0 0 0 Z " fill="#7367D1" transform="translate(42,37)"/>
<path d="M0 0 C1.37478516 0.01740234 1.37478516 0.01740234 2.77734375 0.03515625 C3.69644531 0.04417969 4.61554688 0.05320312 5.5625 0.0625 C6.27277344 0.07410156 6.98304687 0.08570312 7.71484375 0.09765625 C7.71484375 0.42765625 7.71484375 0.75765625 7.71484375 1.09765625 C5.69661458 1.55338542 3.67838542 2.00911458 1.66015625 2.46484375 C-0.49235589 3.00240053 -0.49235589 3.00240053 -2.28515625 5.09765625 C-2.84765625 3.16015625 -2.84765625 3.16015625 -3.28515625 1.09765625 C-2.28515625 0.09765625 -2.28515625 0.09765625 0 0 Z " fill="#766FC8" transform="translate(109.28515625,21.90234375)"/>
<path d="M0 0 C-0.66 0.66 -1.32 1.32 -2 2 C-4.3828125 1.9765625 -4.3828125 1.9765625 -7.125 1.625 C-8.03507813 1.51414062 -8.94515625 1.40328125 -9.8828125 1.2890625 C-10.58148438 1.19367187 -11.28015625 1.09828125 -12 1 C-12 0.67 -12 0.34 -12 0 C-7.66726186 -0.92844389 -4.33273814 -0.92844389 0 0 Z " fill="#DCDAF9" transform="translate(158,3)"/>
<path d="M0 0 C0.66 0.33 1.32 0.66 2 1 C1.125 6.75 1.125 6.75 0 9 C-0.99 8.67 -1.98 8.34 -3 8 C-1.125 2.25 -1.125 2.25 0 0 Z " fill="#EFECFE" transform="translate(35,77)"/>
<path d="M0 0 C2.61500768 2.36595933 4.38999603 4.86049226 6 8 C5.67 8.66 5.34 9.32 5 10 C3.0625 8.9375 3.0625 8.9375 1 7 C0.25 3.3125 0.25 3.3125 0 0 Z " fill="#6E68C2" transform="translate(235,64)"/>
<path d="M0 0 C2.475 0.495 2.475 0.495 5 1 C5.66 2.98 6.32 4.96 7 7 C5.83040013 6.02433888 4.66438823 5.044375 3.5 4.0625 C2.8503125 3.51722656 2.200625 2.97195312 1.53125 2.41015625 C1.0259375 1.94480469 0.520625 1.47945312 0 1 C0 0.67 0 0.34 0 0 Z " fill="#6F65C5" transform="translate(32,208)"/>
<path d="M0 0 C0.66 0.33 1.32 0.66 2 1 C0.68 3.31 -0.64 5.62 -2 8 C-2.33 8 -2.66 8 -3 8 C-3.36923077 3.44615385 -3.36923077 3.44615385 -1.5 1.1875 C-1.005 0.795625 -0.51 0.40375 0 0 Z " fill="#E8E8FD" transform="translate(220,176)"/>
<path d="M0 0 C0.66 0.33 1.32 0.66 2 1 C2 1.66 2 2.32 2 3 C2.66 3.33 3.32 3.66 4 4 C1.69 4.66 -0.62 5.32 -3 6 C-1.125 1.125 -1.125 1.125 0 0 Z " fill="#EAEAFB" transform="translate(42,66)"/>
<path d="M0 0 C0.33 0.66 0.66 1.32 1 2 C0.34 2 -0.32 2 -1 2 C-1.12375 2.61875 -1.2475 3.2375 -1.375 3.875 C-2 6 -2 6 -4 8 C-4 6.02 -4 4.04 -4 2 C-2.68 1.34 -1.36 0.68 0 0 Z " fill="#F9FAF2" transform="translate(174,8)"/>
<path d="M0 0 C0.99 0 1.98 0 3 0 C3 1.32 3 2.64 3 4 C2.34 4 1.68 4 1 4 C0.67 4.66 0.34 5.32 0 6 C-1.125 2.25 -1.125 2.25 0 0 Z " fill="#645BC7" transform="translate(243,166)"/>
<path d="M0 0 C1.32 0 2.64 0 4 0 C3.67 1.65 3.34 3.3 3 5 C2.01 4.67 1.02 4.34 0 4 C0 2.68 0 1.36 0 0 Z " fill="#F9FDEE" transform="translate(233,53)"/>
<path d="M0 0 C0.33 0.66 0.66 1.32 1 2 C-0.21480305 5.42353587 -2.01771223 7.01180815 -5 9 C-4.42647107 5.12867972 -2.51295648 2.91827204 0 0 Z " fill="#7368CA" transform="translate(34,44)"/>
</svg>
