<?xml version="1.0" encoding="UTF-8"?>
<svg version="1.1" xmlns="http://www.w3.org/2000/svg" width="256" height="256">
<path d="M0 0 C0.75456482 -0.00555908 1.50912964 -0.01111816 2.28656006 -0.0168457 C15.40342918 -0.06560083 27.39941371 1.56488751 40 5.375 C40.78390368 11.59480287 41.14362257 17.64255944 41.12698364 23.90736389 C41.12932363 25.28250543 41.12932363 25.28250543 41.13171089 26.68542761 C41.1356757 29.73439358 41.13254886 32.78330911 41.12939453 35.83227539 C41.13075057 38.02749155 41.13253164 40.22270747 41.13470459 42.41792297 C41.13925456 48.36402422 41.13749945 54.31010807 41.1343255 60.25620961 C41.13178964 66.48513285 41.13414283 72.71405461 41.13571167 78.94297791 C41.13764601 90.07060073 41.13454324 101.19821673 41.12945233 112.3258382 C41.12498388 122.40481076 41.12576205 132.48377179 41.13037109 142.56274414 C41.13572844 154.28347901 41.1377116 166.00420716 41.13475883 177.7249431 C41.13320114 183.92341827 41.13298843 190.12188552 41.13629532 196.32036018 C41.13918696 202.14720002 41.13717452 207.97401814 41.13140106 213.80085564 C41.13008047 215.93736612 41.13045567 218.07387843 41.13266373 220.21038818 C41.13540274 223.1301566 41.13196048 226.04985573 41.12698364 228.96961975 C41.13032973 230.23281566 41.13032973 230.23281566 41.13374341 231.52153069 C41.11713818 236.5561691 40.95165912 241.42156442 40 246.375 C36.54318813 248.67954125 33.94355406 249.15255674 29.875 249.9375 C28.61429687 250.18628906 27.35359375 250.43507812 26.0546875 250.69140625 C4.98948115 254.40758537 -16.44830325 253.02107054 -37 247.375 C-38.91336674 241.73184019 -39.28227589 236.76918986 -39.24723816 230.83517456 C-39.24965257 229.89350437 -39.25206699 228.95183419 -39.25455457 227.98162854 C-39.26017576 224.83647668 -39.25154036 221.69152935 -39.24291992 218.54638672 C-39.24399318 216.2874852 -39.24593252 214.02858395 -39.24867249 211.76968384 C-39.25351637 205.64183165 -39.24587111 199.51405238 -39.23571944 193.38620901 C-39.22693269 186.97436195 -39.2286965 180.56251714 -39.2290802 174.15066528 C-39.22814392 163.38542199 -39.21951834 152.62021324 -39.20581055 141.85498047 C-39.19171747 130.78140756 -39.1846401 119.70785934 -39.18530273 108.63427734 C-39.18536267 107.61076299 -39.18536267 107.61076299 -39.18542381 106.56657158 C-39.18546417 105.8854004 -39.18550452 105.20422922 -39.1855461 104.50241649 C-39.18620114 92.52783283 -39.1810531 80.55325946 -39.17275429 68.57867813 C-39.16922153 63.48070319 -39.16739105 58.38273181 -39.16686058 53.28475571 C-39.16585696 47.28476454 -39.15975867 41.28479934 -39.14969444 35.28481674 C-39.14677081 33.08093423 -39.1455438 30.87704874 -39.14612198 28.67316437 C-39.14661191 25.66903458 -39.14096438 22.66497778 -39.13371277 19.66085815 C-39.13526137 18.78527909 -39.13680997 17.90970003 -39.1384055 17.00758827 C-39.12237713 12.99697731 -39.00236818 9.28877504 -38 5.375 C-35.45906145 4.72618552 -32.91731727 4.08087101 -30.375 3.4375 C-29.66214844 3.25509766 -28.94929688 3.07269531 -28.21484375 2.88476562 C-27.51230469 2.70751953 -26.80976562 2.53027344 -26.0859375 2.34765625 C-25.1276001 2.10414429 -25.1276001 2.10414429 -24.14990234 1.85571289 C-16.14275628 0.06533467 -8.16181261 0.05006843 0 0 Z M-17 22.375 C-18.27007337 85.26354061 -18.86570538 148.23243411 -17.5625 211.125 C-17.5429425 212.10994446 -17.52338501 213.09488892 -17.50323486 214.10968018 C-17.44794374 216.75564168 -17.38467134 219.40122 -17.31640625 222.046875 C-17.29968369 222.79607208 -17.28296112 223.54526917 -17.26573181 224.31716919 C-17.44137867 227.6320929 -17.44137867 227.6320929 -16 230.375 C-10.34295895 231.44179924 -4.80665115 231.52585514 0.9375 231.5 C1.79279297 231.50386719 2.64808594 231.50773438 3.52929688 231.51171875 C4.37427734 231.51042969 5.21925781 231.50914062 6.08984375 231.5078125 C6.84128662 231.50668457 7.59272949 231.50555664 8.36694336 231.50439453 C11.92693664 231.32944818 15.46323456 230.81709568 19 230.375 C19 161.735 19 93.095 19 22.375 C15.27838208 21.44459552 12.43065954 21.24599751 8.625 21.2421875 C7.39265625 21.24089844 6.1603125 21.23960938 4.890625 21.23828125 C3.60671875 21.24214844 2.3228125 21.24601562 1 21.25 C-0.92585938 21.24419922 -0.92585938 21.24419922 -2.890625 21.23828125 C-4.12296875 21.23957031 -5.3553125 21.24085937 -6.625 21.2421875 C-7.75164062 21.24331543 -8.87828125 21.24444336 -10.0390625 21.24560547 C-12.56998264 21.35620801 -14.57923504 21.7188877 -17 22.375 Z " fill="#675CD6" transform="translate(127,1.625)"/>
<path d="M0 0 C27.37527554 8.12372937 49.90161145 32.37631661 63.1875 56.60546875 C71.01530792 71.26573833 80.82293724 94.13410042 77 111 C74.4375 113.9375 74.4375 113.9375 72 116 C73.12524474 118.53180066 74.14811563 120.15140708 76.109375 122.15625 C78.59123383 125.88929385 78.17995476 128.58985104 77.5 132.8125 C77.39324951 133.55878662 77.28649902 134.30507324 77.17651367 135.07397461 C72.20548726 167.76286553 55.16954907 198.41492036 28.29589844 218.25830078 C7.61679965 233 7.61679965 233 -1 233 C-1.02279006 203.46159505 -1.04049802 173.92319051 -1.05106533 144.38477862 C-1.05231611 140.9011317 -1.05361042 137.41748479 -1.05493164 133.93383789 C-1.05519395 133.24027757 -1.05545626 132.54671726 -1.05572652 131.83213996 C-1.06008327 120.58752332 -1.06797085 109.34291176 -1.0771528 98.09829814 C-1.08648919 86.56877683 -1.09198068 75.03925911 -1.09408849 63.50973409 C-1.09539604 57.03021237 -1.09848465 50.55070219 -1.10573006 44.07118416 C-1.11248622 37.9801993 -1.11461779 31.88923082 -1.11310768 25.79824257 C-1.11338419 23.55559449 -1.11539169 21.31294591 -1.11920547 19.07030106 C-1.12413643 16.02280405 -1.12300051 12.97536999 -1.12025452 9.9278717 C-1.12316736 9.02808454 -1.1260802 8.12829738 -1.12908131 7.20124394 C-1.11412121 1.11412121 -1.11412121 1.11412121 0 0 Z M20 38 C20 60.44 20 82.88 20 106 C30.56 106 41.12 106 52 106 C55.32454601 103.3191214 55.32454601 103.3191214 55.28125 99.7421875 C53.66378304 78.22089099 41.3427262 57.45472276 26 43 C25.09507812 42.07960938 24.19015625 41.15921875 23.2578125 40.2109375 C21.40759543 37.88339149 21.40759543 37.88339149 20 38 Z M20 128 C20 150.44 20 172.88 20 196 C23.63117185 194.18441408 24.85091151 193.32420625 27.3125 190.375 C30.8471229 186.15746695 30.8471229 186.15746695 32.69140625 184.2578125 C44.6557484 171.76603996 53.90019098 151.41766999 55.3125 134.1875 C55.30845806 130.67371864 55.30845806 130.67371864 52 128 C41.44 128 30.88 128 20 128 Z " fill="#675CD7" transform="translate(176,11)"/>
<path d="M0 0 C0.02312792 7.80575195 0.04091738 15.61149595 0.05181217 23.41727352 C0.05704002 27.0414596 0.06413587 30.6656223 0.07543945 34.28979492 C0.08627184 37.78459975 0.09227758 41.27938204 0.09487724 44.77420235 C0.09763551 46.76239389 0.10544688 48.75057631 0.11329651 50.73875427 C0.11337204 51.93992386 0.11344757 53.14109344 0.11352539 54.37866211 C0.115746 55.44233505 0.11796661 56.506008 0.12025452 57.60191345 C0 60 0 60 -1 61 C-2.40348735 61.09860131 -3.81180477 61.13078937 -5.21875 61.1328125 C-6.49298828 61.13474609 -6.49298828 61.13474609 -7.79296875 61.13671875 C-8.68628906 61.13285156 -9.57960938 61.12898438 -10.5 61.125 C-11.39332031 61.12886719 -12.28664063 61.13273437 -13.20703125 61.13671875 C-14.05652344 61.13542969 -14.90601562 61.13414063 -15.78125 61.1328125 C-16.56564453 61.13168457 -17.35003906 61.13055664 -18.15820312 61.12939453 C-20 61 -20 61 -21 60 C-21.15714654 58.36743242 -21.25085414 56.72864662 -21.31640625 55.08984375 C-21.35830078 54.10048828 -21.40019531 53.11113281 -21.44335938 52.09179688 C-21.48267578 51.05087891 -21.52199219 50.00996094 -21.5625 48.9375 C-21.60568359 47.89271484 -21.64886719 46.84792969 -21.69335938 45.77148438 C-21.79981225 43.18113116 -21.9018276 40.59067814 -22 38 C-29.56230908 45.11527603 -35.80018856 51.92607161 -41 61 C-41.58265625 61.89847656 -42.1653125 62.79695313 -42.765625 63.72265625 C-46.44582678 69.53897516 -49.06583452 75.37902032 -51.25 81.875 C-51.48404541 82.56924072 -51.71809082 83.26348145 -51.95922852 83.97875977 C-54.15345431 90.86490226 -55.55609726 97.92538056 -57 105 C-56.37439178 104.99777939 -55.74878357 104.99555878 -55.10421753 104.99327087 C-48.58283053 104.97111797 -42.06145424 104.95605161 -35.54003906 104.94506836 C-33.10741746 104.94004496 -30.67479886 104.93322509 -28.2421875 104.92456055 C-24.74217993 104.91240774 -21.24221235 104.90675168 -17.7421875 104.90234375 C-16.65759247 104.89718246 -15.57299744 104.89202118 -14.45553589 104.88670349 C-13.43493073 104.88662796 -12.41432556 104.88655243 -11.36279297 104.88647461 C-10.47010712 104.884254 -9.57742126 104.88203339 -8.65768433 104.87974548 C-6 105 -6 105 0 106 C0 147.91 0 189.82 0 233 C-5.0549313 231.98901374 -8.52282152 230.44527127 -13 228.0625 C-13.74894531 227.66426025 -14.49789062 227.26602051 -15.26953125 226.85571289 C-22.45256809 222.92691602 -28.74590329 218.25719029 -35 213 C-35.84304687 212.29746094 -36.68609375 211.59492188 -37.5546875 210.87109375 C-46.65474552 203.04259266 -53.37241889 193.92278967 -60 184 C-60.83337891 182.77603516 -60.83337891 182.77603516 -61.68359375 181.52734375 C-64.01018091 178.00121307 -65 176.32847186 -65 172 C-43.40711554 170.36207552 -43.40711554 170.36207552 -37.8828125 174.12109375 C-36.11820106 176.73014371 -34.94837987 179.00387453 -34 182 C-33.67 182.99 -33.34 183.98 -33 185 C-32.34 185 -31.68 185 -31 185 C-29.34375 186.6796875 -29.34375 186.6796875 -27.5 188.875 C-25.71066742 190.99035504 -23.95980876 193.04019124 -22 195 C-21.67 172.56 -21.34 150.12 -21 127 C-39.71375942 127.03961119 -39.71375942 127.03961119 -58.42749023 127.09008789 C-60.76285761 127.0930068 -63.09822549 127.09555542 -65.43359375 127.09765625 C-67.27201843 127.1053302 -67.27201843 127.1053302 -69.14758301 127.11315918 C-70.30471802 127.11328003 -71.46185303 127.11340088 -72.65405273 127.11352539 C-73.664431 127.115746 -74.67480927 127.11796661 -75.71580505 127.12025452 C-78 127 -78 127 -79 126 C-82.11310767 92.08127691 -70.31831148 60.29525 -49.375 34.125 C-39.02309922 21.79876763 -17.38003436 0 0 0 Z " fill="#675CD7" transform="translate(81,11)"/>
<path d="M0 0 C0.02312792 7.80575195 0.04091738 15.61149595 0.05181217 23.41727352 C0.05704002 27.0414596 0.06413587 30.6656223 0.07543945 34.28979492 C0.08627184 37.78459975 0.09227758 41.27938204 0.09487724 44.77420235 C0.09763551 46.76239389 0.10544688 48.75057631 0.11329651 50.73875427 C0.11337204 51.93992386 0.11344757 53.14109344 0.11352539 54.37866211 C0.115746 55.44233505 0.11796661 56.506008 0.12025452 57.60191345 C0 60 0 60 -1 61 C-2.40348735 61.09860131 -3.81180477 61.13078937 -5.21875 61.1328125 C-6.49298828 61.13474609 -6.49298828 61.13474609 -7.79296875 61.13671875 C-8.68628906 61.13285156 -9.57960938 61.12898438 -10.5 61.125 C-11.39332031 61.12886719 -12.28664063 61.13273437 -13.20703125 61.13671875 C-14.05652344 61.13542969 -14.90601562 61.13414063 -15.78125 61.1328125 C-16.56564453 61.13168457 -17.35003906 61.13055664 -18.15820312 61.12939453 C-20 61 -20 61 -21 60 C-21.15714654 58.36743242 -21.25085414 56.72864662 -21.31640625 55.08984375 C-21.35830078 54.10048828 -21.40019531 53.11113281 -21.44335938 52.09179688 C-21.48267578 51.05087891 -21.52199219 50.00996094 -21.5625 48.9375 C-21.60568359 47.89271484 -21.64886719 46.84792969 -21.69335938 45.77148438 C-21.79981225 43.18113116 -21.9018276 40.59067814 -22 38 C-29.56230908 45.11527603 -35.80018856 51.92607161 -41 61 C-41.58265625 61.89847656 -42.1653125 62.79695313 -42.765625 63.72265625 C-46.44582678 69.53897516 -49.06583452 75.37902032 -51.25 81.875 C-51.48404541 82.56924072 -51.71809082 83.26348145 -51.95922852 83.97875977 C-54.15345431 90.86490226 -55.55609726 97.92538056 -57 105 C-56.37439178 104.99777939 -55.74878357 104.99555878 -55.10421753 104.99327087 C-48.58283053 104.97111797 -42.06145424 104.95605161 -35.54003906 104.94506836 C-33.10741746 104.94004496 -30.67479886 104.93322509 -28.2421875 104.92456055 C-24.74217993 104.91240774 -21.24221235 104.90675168 -17.7421875 104.90234375 C-16.65759247 104.89718246 -15.57299744 104.89202118 -14.45553589 104.88670349 C-13.43493073 104.88662796 -12.41432556 104.88655243 -11.36279297 104.88647461 C-10.47010712 104.884254 -9.57742126 104.88203339 -8.65768433 104.87974548 C-6 105 -6 105 0 106 C0 147.91 0 189.82 0 233 C-5.0549313 231.98901374 -8.52282152 230.44527127 -13 228.0625 C-13.74894531 227.66426025 -14.49789062 227.26602051 -15.26953125 226.85571289 C-22.45256809 222.92691602 -28.74590329 218.25719029 -35 213 C-35.84304687 212.29746094 -36.68609375 211.59492188 -37.5546875 210.87109375 C-46.65474552 203.04259266 -53.37241889 193.92278967 -60 184 C-60.83337891 182.77603516 -60.83337891 182.77603516 -61.68359375 181.52734375 C-64.01018091 178.00121307 -65 176.32847186 -65 172 C-43.40711554 170.36207552 -43.40711554 170.36207552 -37.8828125 174.12109375 C-36.11820106 176.73014371 -34.94837987 179.00387453 -34 182 C-33.67 182.99 -33.34 183.98 -33 185 C-32.34 185 -31.68 185 -31 185 C-29.34375 186.6796875 -29.34375 186.6796875 -27.5 188.875 C-25.71066742 190.99035504 -23.95980876 193.04019124 -22 195 C-21.67 172.56 -21.34 150.12 -21 127 C-39.71375942 127.03961119 -39.71375942 127.03961119 -58.42749023 127.09008789 C-60.76285761 127.0930068 -63.09822549 127.09555542 -65.43359375 127.09765625 C-67.27201843 127.1053302 -67.27201843 127.1053302 -69.14758301 127.11315918 C-70.30471802 127.11328003 -71.46185303 127.11340088 -72.65405273 127.11352539 C-73.664431 127.115746 -74.67480927 127.11796661 -75.71580505 127.12025452 C-78 127 -78 127 -79 126 C-80.46564527 110.03112862 -77.96789534 94.40578496 -74 79 C-73.67 79 -73.34 79 -73 79 C-72.70809011 84.54628793 -73.19974858 89.26783117 -74.4375 94.6875 C-75.87825621 101.32082487 -76.35829279 107.74295382 -76.59765625 114.51953125 C-76.638302 115.53132446 -76.67894775 116.54311768 -76.7208252 117.58557129 C-76.81932768 120.05688924 -76.91226591 122.52828034 -77 125 C-76.29256149 124.98889694 -75.58512299 124.97779388 -74.85624695 124.96635437 C-68.19089054 124.86618958 -61.52574394 124.79005485 -54.85980511 124.74093914 C-51.43265887 124.71483885 -48.00613417 124.67943628 -44.5793457 124.62280273 C-40.6402123 124.55810889 -36.70133096 124.53382285 -32.76171875 124.51171875 C-30.9147364 124.47300911 -30.9147364 124.47300911 -29.03044128 124.43351746 C-27.88948502 124.4331398 -26.74852875 124.43276215 -25.57299805 124.43237305 C-24.567061 124.42126999 -23.56112396 124.41016693 -22.52470398 124.39872742 C-20 125 -20 125 -18.15168762 127.53547668 C-17.77163071 128.34876938 -17.39157379 129.16206207 -17 130 C-17.66 130 -18.32 130 -19 130 C-19 151.45 -19 172.9 -19 195 C-18.34 195.33 -17.68 195.66 -17 196 C-19.6875 197.25 -19.6875 197.25 -23 198 C-25.875 196.25 -25.875 196.25 -28 194 C-28 193.34 -28 192.68 -28 192 C-28.99 191.67 -29.98 191.34 -31 191 C-32.01351664 189.34151823 -33.01120795 187.67334039 -34 186 C-35.64488294 184.31183067 -37.31337542 182.64646685 -39 181 C-39.68707031 179.96488281 -40.37414063 178.92976562 -41.08203125 177.86328125 C-42.71643233 175.88199557 -43.56472627 175.10103842 -46.08984375 174.51489258 C-48.52279868 174.40987477 -50.88210728 174.47537835 -53.3125 174.625 C-54.14845703 174.65207031 -54.98441406 174.67914063 -55.84570312 174.70703125 C-57.89825247 174.77740437 -59.94946591 174.88501678 -62 175 C-61.34 175.66 -60.68 176.32 -60 177 C-58.81476552 179.09159027 -58.03526634 180.82366831 -57.5625 183.1875 C-57.376875 183.785625 -57.19125 184.38375 -57 185 C-56.01 185.33 -55.02 185.66 -54 186 C-53.5875 186.886875 -53.175 187.77375 -52.75 188.6875 C-51.10497838 191.80129092 -50.20307165 192.84305938 -47.5625 194.9375 C-45.02053727 196.96894302 -43.42813687 198.66891077 -41.9375 201.5625 C-39.69587201 205.53958191 -37.56102709 207.23031226 -34 210 C-33.67 210.66 -33.34 211.32 -33 212 C-32.1028125 212.185625 -32.1028125 212.185625 -31.1875 212.375 C-28.25826662 213.21192382 -27.07731936 214.7967825 -25 217 C-21.49525705 220.13582264 -18.53435285 221.73459921 -14 223 C-14 223.66 -14 224.32 -14 225 C-12.35 225.33 -10.7 225.66 -9 226 C-9 226.66 -9 227.32 -9 228 C-6.69 228.66 -4.38 229.32 -2 230 C-2.33 190.07 -2.66 150.14 -3 109 C-21.48 108.67 -39.96 108.34 -59 108 C-58 93 -58 93 -56 88 C-55.67589508 86.59040081 -55.3832724 85.17313361 -55.125 83.75 C-53.67584697 76.90360776 -50.69221423 70.90754277 -47 65 C-45.74990897 62.7334415 -44.51242558 60.46047936 -43.28125 58.18359375 C-41.98278218 55.97065621 -40.66555281 53.95348083 -39 52 C-38.34 52 -37.68 52 -37 52 C-36.9175 51.4225 -36.835 50.845 -36.75 50.25 C-35.78202213 47.3460664 -34.31305716 45.96259396 -32 44 C-31.34 44 -30.68 44 -30 44 C-29.7525 43.2575 -29.505 42.515 -29.25 41.75 C-27.86422029 38.70128464 -26.64931875 37.04376018 -24 35 C-22.35 35 -20.7 35 -19 35 C-18.505 46.88 -18.505 46.88 -18 59 C-12.72 59 -7.44 59 -2 59 C-2 40.52 -2 22.04 -2 3 C-11.8595148 7.89482473 -11.8595148 7.89482473 -21.25 13.375 C-22.34828125 14.06335937 -23.4465625 14.75171875 -24.578125 15.4609375 C-25.77695313 16.22277344 -25.77695313 16.22277344 -27 17 C-26.34 18.32 -25.68 19.64 -25 21 C-25.87398437 20.91492188 -26.74796875 20.82984375 -27.6484375 20.7421875 C-33.75570943 21.21197765 -37.72943434 25.90401721 -42 30 C-43.57127105 31.94250542 -44.7212481 33.83595833 -46 36 C-47.62746694 37.70496537 -49.28891311 39.37897032 -51 41 C-53.22189824 43.22189824 -53.92598892 45.08482708 -55 48 C-55.66 48 -56.32 48 -57 48 C-57.2475 48.66 -57.495 49.32 -57.75 50 C-59.31817045 53.76360907 -61.14505046 57.3711424 -63 61 C-63.66 61 -64.32 61 -65 61 C-65.12246094 61.70511719 -65.24492188 62.41023438 -65.37109375 63.13671875 C-66.03405201 66.15503183 -66.98175575 68.91889442 -68.0625 71.8125 C-68.42472656 72.78832031 -68.78695312 73.76414062 -69.16015625 74.76953125 C-69.43730469 75.50558594 -69.71445313 76.24164063 -70 77 C-70.99 76.67 -71.98 76.34 -73 76 C-60.81991069 41.70490983 -37.87968845 17.37099579 -5.4609375 1.03125 C-3 0 -3 0 0 0 Z " fill="#584CA5" transform="translate(81,11)"/>
<path d="M0 0 C0.20561085 2.76994662 0.28508314 5.44111205 0.2784729 8.21292114 C0.2871615 9.50180341 0.2871615 9.50180341 0.29602563 10.8167237 C0.31310946 13.71265136 0.31590931 16.60842046 0.31884766 19.50439453 C0.32814006 21.57363276 0.33830768 23.64286721 0.34928894 25.71209717 C0.37668062 31.3440225 0.39176542 36.97592271 0.40471697 42.60789728 C0.42030753 48.48829196 0.44711064 54.368635 0.4727478 60.24899292 C0.51960797 71.39077027 0.55631698 82.53255726 0.58942068 93.67438304 C0.62759103 106.35620308 0.67701444 119.03797133 0.72740483 131.71974778 C0.8308323 157.81312685 0.92005742 183.90653916 1 210 C-5.77180559 213.3859028 -15.45499567 212.10394401 -22.875 212.125 C-23.79063721 212.12959229 -24.70627441 212.13418457 -25.6496582 212.13891602 C-36.88691676 212.11308324 -36.88691676 212.11308324 -40 209 C-40.95594855 204.05444125 -41.19396838 199.121224 -41.31640625 194.09765625 C-41.33718735 193.3750914 -41.35796844 192.65252655 -41.37937927 191.9080658 C-41.44415426 189.6262963 -41.5034203 187.34442333 -41.5625 185.0625 C-41.60575397 183.50454709 -41.64937031 181.9466042 -41.69335938 180.38867188 C-41.79976039 176.59255078 -41.90122499 172.79632686 -42 169 C-42.33 169 -42.66 169 -43 169 C-43.02320931 160.75906417 -43.04095881 152.5181421 -43.05181217 144.27718163 C-43.05702223 140.45023821 -43.0640857 136.62331723 -43.07543945 132.79638672 C-43.08633515 129.10055955 -43.09229097 125.4047539 -43.09487724 121.7089119 C-43.09671947 120.30157762 -43.10031683 118.89424447 -43.10573006 117.4869194 C-43.11302913 115.51000882 -43.11340881 113.5330764 -43.11352539 111.55615234 C-43.115746 110.43252289 -43.11796661 109.30889343 -43.12025452 108.1512146 C-43.00064842 105.01699151 -42.5384822 102.08586963 -42 99 C-41.9300447 97.58975074 -41.89974336 96.17678761 -41.91552734 94.76489258 C-41.92073395 93.95034103 -41.92594055 93.13578949 -41.93130493 92.29655457 C-41.94108368 91.40076187 -41.95086243 90.50496918 -41.9609375 89.58203125 C-42.03814089 74.5495714 -41.88614211 59.52069952 -41.71248245 44.48939323 C-41.6619198 40.11234647 -41.6154581 35.73533568 -41.578125 31.3581543 C-41.54138949 27.05864442 -41.49514383 22.75933759 -41.44193649 18.46000099 C-41.4234298 16.83448568 -41.40830813 15.20892813 -41.39665604 13.58334923 C-41.37988559 11.33489005 -41.35090107 9.0869088 -41.31884766 6.83862305 C-41.30552399 5.56230515 -41.29220032 4.28598724 -41.2784729 2.97099304 C-41 0 -41 0 -39 -2 C-36.34545898 -2.3347168 -36.34545898 -2.3347168 -32.99609375 -2.44921875 C-31.17174805 -2.51399414 -31.17174805 -2.51399414 -29.31054688 -2.58007812 C-27.39338867 -2.63325195 -27.39338867 -2.63325195 -25.4375 -2.6875 C-24.18646484 -2.73455078 -22.93542969 -2.78160156 -21.64648438 -2.83007812 C-3.41509381 -3.41509381 -3.41509381 -3.41509381 0 0 Z M-38 1 C-39.27007337 63.88854061 -39.86570538 126.85743411 -38.5625 189.75 C-38.5429425 190.73494446 -38.52338501 191.71988892 -38.50323486 192.73468018 C-38.44794374 195.38064168 -38.38467134 198.02622 -38.31640625 200.671875 C-38.29968369 201.42107208 -38.28296112 202.17026917 -38.26573181 202.94216919 C-38.44137867 206.2570929 -38.44137867 206.2570929 -37 209 C-31.34295895 210.06679924 -25.80665115 210.15085514 -20.0625 210.125 C-19.20720703 210.12886719 -18.35191406 210.13273438 -17.47070312 210.13671875 C-16.62572266 210.13542969 -15.78074219 210.13414062 -14.91015625 210.1328125 C-14.15871338 210.13168457 -13.40727051 210.13055664 -12.63305664 210.12939453 C-9.07306336 209.95444818 -5.53676544 209.44209568 -2 209 C-2 140.36 -2 71.72 -2 1 C-5.72161792 0.06959552 -8.56934046 -0.12900249 -12.375 -0.1328125 C-13.60734375 -0.13410156 -14.8396875 -0.13539062 -16.109375 -0.13671875 C-17.39328125 -0.13285156 -18.6771875 -0.12898438 -20 -0.125 C-21.92585938 -0.13080078 -21.92585938 -0.13080078 -23.890625 -0.13671875 C-25.12296875 -0.13542969 -26.3553125 -0.13414063 -27.625 -0.1328125 C-28.75164062 -0.13168457 -29.87828125 -0.13055664 -31.0390625 -0.12939453 C-33.56998264 -0.01879199 -35.57923504 0.3438877 -38 1 Z " fill="#584CB2" transform="translate(148,23)"/>
<path d="M0 0 C27.37527554 8.12372937 49.90161145 32.37631661 63.1875 56.60546875 C71.13072505 71.4818967 80.57383911 93.89209564 77 111 C75.5625 112.9375 75.5625 112.9375 74 114 C73.34 114 72.68 114 72 114 C72.309375 113.46375 72.61875 112.9275 72.9375 112.375 C78.23923537 100.52406212 72.04858538 84.88471218 67.92236328 73.37939453 C65.16511459 66.26659787 61.85226574 58.80088446 57.26171875 52.68359375 C56 51 56 51 56 49 C55.34 49 54.68 49 54 49 C53.65388672 48.22076172 53.65388672 48.22076172 53.30078125 47.42578125 C51.11126241 42.7438457 48.80025692 39.58913153 45 36 C45 35.34 45 34.68 45 34 C43.35 33.34 41.7 32.68 40 32 C40 31.34 40 30.68 40 30 C39.175 29.34 38.35 28.68 37.5 28 C36.675 27.34 35.85 26.68 35 26 C35 25.34 35 24.68 35 24 C34.34 24 33.68 24 33 24 C32.34 23.01 31.68 22.02 31 21 C28.94996045 19.80767387 28.94996045 19.80767387 27 19 C27 18.34 27 17.68 27 17 C26.319375 16.95875 25.63875 16.9175 24.9375 16.875 C21.32226069 15.7981202 19.50640467 13.97939647 16.75 11.484375 C14.36587031 9.46212214 11.84492597 8.2773137 9 7 C6.36 5.68 3.72 4.36 1 3 C1 78.24 1 153.48 1 231 C9.61273644 226.69363178 17.12689013 221.99766026 24.8984375 216.35546875 C27 215 27 215 29 215 C29 214.34 29 213.68 29 213 C29.99 212.67 30.98 212.34 32 212 C32.639375 211.030625 33.27875 210.06125 33.9375 209.0625 C36.07846859 205.88348603 36.7845769 205.58937263 40 204 C41.56455488 202.46447533 41.56455488 202.46447533 42.9375 200.6875 C44.78260164 198.42771643 46.53703639 196.50043126 48.6875 194.5 C51.40410548 191.56312922 52.46541945 188.66964913 54 185 C55.31129922 183.64499081 56.64691687 182.31328657 58 181 C62.89662484 174.25387599 65.70134309 167.17889708 67.375 159.0546875 C68 157 68 157 69.4921875 154.2109375 C71.16763417 150.64301739 71.66813361 147.654131 72.125 143.75 C72.91666667 137.16666667 72.91666667 137.16666667 74 135 C74.12207871 133.21140489 74.17548448 131.41771619 74.1875 129.625 C74.20167969 128.66851562 74.21585937 127.71203125 74.23046875 126.7265625 C73.99745572 123.96989983 73.40920164 122.35052605 72 120 C71.34 120 70.68 120 70 120 C70 119.34 70 118.68 70 118 C73.84725179 119.51142034 75.80548431 121.51128274 78 125 C78.07289665 127.83385726 77.94322608 130.05998132 77.5 132.8125 C77.39324951 133.55878662 77.28649902 134.30507324 77.17651367 135.07397461 C72.20548726 167.76286553 55.16954907 198.41492036 28.29589844 218.25830078 C7.61679965 233 7.61679965 233 -1 233 C-1.02279006 203.46159505 -1.04049802 173.92319051 -1.05106533 144.38477862 C-1.05231611 140.9011317 -1.05361042 137.41748479 -1.05493164 133.93383789 C-1.05519395 133.24027757 -1.05545626 132.54671726 -1.05572652 131.83213996 C-1.06008327 120.58752332 -1.06797085 109.34291176 -1.0771528 98.09829814 C-1.08648919 86.56877683 -1.09198068 75.03925911 -1.09408849 63.50973409 C-1.09539604 57.03021237 -1.09848465 50.55070219 -1.10573006 44.07118416 C-1.11248622 37.9801993 -1.11461779 31.88923082 -1.11310768 25.79824257 C-1.11338419 23.55559449 -1.11539169 21.31294591 -1.11920547 19.07030106 C-1.12413643 16.02280405 -1.12300051 12.97536999 -1.12025452 9.9278717 C-1.12316736 9.02808454 -1.1260802 8.12829738 -1.12908131 7.20124394 C-1.11412121 1.11412121 -1.11412121 1.11412121 0 0 Z " fill="#5D50A6" transform="translate(176,11)"/>
<path d="M0 0 C0.75456482 -0.00555908 1.50912964 -0.01111816 2.28656006 -0.0168457 C15.40342918 -0.06560083 27.39941371 1.56488751 40 5.375 C40.78390368 11.59480287 41.14362257 17.64255944 41.12698364 23.90736389 C41.12932363 25.28250543 41.12932363 25.28250543 41.13171089 26.68542761 C41.1356757 29.73439358 41.13254886 32.78330911 41.12939453 35.83227539 C41.13075057 38.02749155 41.13253164 40.22270747 41.13470459 42.41792297 C41.13925456 48.36402422 41.13749945 54.31010807 41.1343255 60.25620961 C41.13178964 66.48513285 41.13414283 72.71405461 41.13571167 78.94297791 C41.13764601 90.07060073 41.13454324 101.19821673 41.12945233 112.3258382 C41.12498388 122.40481076 41.12576205 132.48377179 41.13037109 142.56274414 C41.13572844 154.28347901 41.1377116 166.00420716 41.13475883 177.7249431 C41.13320114 183.92341827 41.13298843 190.12188552 41.13629532 196.32036018 C41.13918696 202.14720002 41.13717452 207.97401814 41.13140106 213.80085564 C41.13008047 215.93736612 41.13045567 218.07387843 41.13266373 220.21038818 C41.13540274 223.1301566 41.13196048 226.04985573 41.12698364 228.96961975 C41.13032973 230.23281566 41.13032973 230.23281566 41.13374341 231.52153069 C41.11713818 236.5561691 40.95165912 241.42156442 40 246.375 C36.54318813 248.67954125 33.94355406 249.15255674 29.875 249.9375 C28.61429687 250.18628906 27.35359375 250.43507812 26.0546875 250.69140625 C17.80175829 252.14733138 9.68800588 252.56915462 1.3125 252.5625 C0.25466309 252.56169434 -0.80317383 252.56088867 -1.89306641 252.56005859 C-9.77524837 252.49850733 -17.25287349 251.89970043 -25 250.375 C-26.010625 250.18421875 -27.02125 249.9934375 -28.0625 249.796875 C-30.38085198 249.34608434 -32.69184225 248.87492357 -35 248.375 C-34.505 247.385 -34.505 247.385 -34 246.375 C-29.67285284 246.86486572 -25.47661958 247.48350436 -21.21875 248.39453125 C-14.46850612 249.6311827 -7.77388399 249.71201947 -0.93774414 249.69067383 C1.19500769 249.68748879 3.32640033 249.71115263 5.45898438 249.73632812 C12.67798124 249.76878263 18.38293518 249.32432032 25 246.375 C28.40625 245.86328125 28.40625 245.86328125 31.5 245.6875 C32.5415625 245.62175781 33.583125 245.55601562 34.65625 245.48828125 C35.81640625 245.43220703 35.81640625 245.43220703 37 245.375 C37.97120989 240.50743643 38.14104904 235.77763716 38.12698364 230.8334198 C38.12854363 229.98682543 38.13010362 229.14023105 38.13171089 228.2679823 C38.13569161 225.43799576 38.13254244 222.6080631 38.12939453 219.77807617 C38.13074998 217.74568653 38.13253072 215.71329713 38.13470459 213.6809082 C38.13926499 208.16169691 38.13749422 202.64250431 38.1343255 197.12329268 C38.13179094 191.33498697 38.13414285 185.54668285 38.13571167 179.75837708 C38.13753176 170.026171 38.13513293 160.2939725 38.13037109 150.56176758 C38.1249456 139.34437517 38.12667928 128.12700098 38.1321975 116.90960902 C38.13675333 107.25919445 38.13736663 97.60878533 38.13475883 87.95837003 C38.13320744 82.20389941 38.13297054 76.44943732 38.13629532 70.69496727 C38.1392094 65.2719603 38.13713411 59.84897648 38.13140106 54.42597198 C38.13009155 52.44804993 38.13043635 50.4701259 38.13266373 48.49220467 C38.14280447 38.56220593 38.0596104 28.69106372 37.26125062 18.78775328 C36.98649547 15.09529384 37.20068613 11.97932617 38 8.375 C35.97742306 6.35242306 31.99016677 6.99946923 29.25 6.8515625 C26.48042414 6.44544681 24.67042384 5.87621375 22.125 4.859375 C15.95004778 2.70926078 9.60315389 2.92613239 3.14355469 2.98388672 C1.00390883 2.99997062 -1.13384889 2.9839735 -3.2734375 2.96484375 C-9.96950003 2.95593935 -15.9069097 3.20384991 -22.17529297 5.70703125 C-24.82786233 6.67805477 -27.26293701 6.66881252 -30.0625 6.5625 C-31.47208984 6.52189453 -31.47208984 6.52189453 -32.91015625 6.48046875 C-33.59980469 6.44566406 -34.28945312 6.41085938 -35 6.375 C-35 7.695 -35 9.015 -35 10.375 C-34.01 10.375 -33.02 10.375 -32 10.375 C-33 13.375 -33 13.375 -36 15.375 C-36.43866465 17.79625971 -36.43866465 17.79625971 -36.34057617 20.65087891 C-36.34034958 21.7518692 -36.34012299 22.8528595 -36.33988953 23.98721313 C-36.32440567 25.17994843 -36.30892181 26.37268372 -36.29296875 27.6015625 C-36.28872391 28.81951508 -36.28447906 30.03746765 -36.28010559 31.29232788 C-36.26326831 35.19510704 -36.22560595 39.09737604 -36.1875 43 C-36.17245974 45.64061756 -36.15877019 48.28124319 -36.14648438 50.921875 C-36.11334822 57.40642504 -36.06309861 63.89067608 -36 70.375 C-35.34 70.375 -34.68 70.375 -34 70.375 C-32.8125 73.125 -32.8125 73.125 -32 76.375 C-32.9876625 77.71749789 -33.98892723 79.05004354 -35 80.375 C-35.57225182 82.63372823 -35.57225182 82.63372823 -35.68554688 85.03881836 C-35.74991943 85.92342743 -35.81429199 86.8080365 -35.88061523 87.7194519 C-36.06121217 91.73657954 -36.08013786 95.73357486 -36.03125 99.75390625 C-35.96559883 111.24292143 -36.07988617 122.72689471 -36.21875 134.21484375 C-36.23536682 135.61025831 -36.23536682 135.61025831 -36.25231934 137.03386307 C-36.32116346 142.80828034 -36.3920165 148.58267131 -36.46356201 154.35705566 C-36.52490388 159.33242585 -36.58464207 164.30781528 -36.64453125 169.28320312 C-36.76148664 178.9804878 -36.8801673 188.67775048 -37 198.375 C-37.33 198.375 -37.66 198.375 -38 198.375 C-38.64729601 151.36226571 -39.10807725 104.35276679 -39.12338257 57.33516693 C-39.12500157 54.05931807 -39.12856101 50.78347614 -39.13256836 47.50762939 C-39.13839105 42.34494534 -39.13867135 37.18229092 -39.13431931 32.01960564 C-39.13332502 30.11728875 -39.13390444 28.21497031 -39.13615799 26.3126545 C-39.13869959 23.71190502 -39.13492235 21.11124115 -39.12939453 18.51049805 C-39.13142128 17.75330034 -39.13344803 16.99610264 -39.13553619 16.21595955 C-39.12048659 12.47694199 -38.89798773 9.01054392 -38 5.375 C-35.45906145 4.72618552 -32.91731727 4.08087101 -30.375 3.4375 C-29.66214844 3.25509766 -28.94929688 3.07269531 -28.21484375 2.88476562 C-27.51230469 2.70751953 -26.80976562 2.53027344 -26.0859375 2.34765625 C-25.1276001 2.10414429 -25.1276001 2.10414429 -24.14990234 1.85571289 C-16.14275628 0.06533467 -8.16181261 0.05006843 0 0 Z " fill="#5B4E9E" transform="translate(127,1.625)"/>
<path d="M0 0 C2.56362043 2.56362043 2.24885457 4.25893717 2.28433573 7.75451672 C2.282401 8.56579018 2.28046626 9.37706364 2.2784729 10.21292114 C2.2871615 11.50180341 2.2871615 11.50180341 2.29602563 12.8167237 C2.31310946 15.71265136 2.31590931 18.60842046 2.31884766 21.50439453 C2.32814006 23.57363276 2.33830768 25.64286721 2.34928894 27.71209717 C2.37668062 33.3440225 2.39176542 38.97592271 2.40471697 44.60789728 C2.42030753 50.48829196 2.44711064 56.368635 2.4727478 62.24899292 C2.51960797 73.39077027 2.55631698 84.53255726 2.58942068 95.67438304 C2.62759103 108.35620308 2.67701444 121.03797133 2.72740483 133.71974778 C2.8308323 159.81312685 2.92005742 185.90653916 3 212 C-3.77180559 215.3859028 -13.45499567 214.10394401 -20.875 214.125 C-21.79063721 214.12959229 -22.70627441 214.13418457 -23.6496582 214.13891602 C-27.88919734 214.12916995 -31.86967722 214.08874617 -36 213 C-35.67 212.01 -35.34 211.02 -35 210 C-32.69 210.33 -30.38 210.66 -28 211 C-18.76 211 -9.52 211 0 211 C0 142.36 0 73.72 0 3 C-11.88 3 -23.76 3 -36 3 C-36 2.34 -36 1.68 -36 1 C-30.75261244 -0.14618305 -25.6027168 -0.3823435 -20.25 -0.625 C-19.29867187 -0.6765625 -18.34734375 -0.728125 -17.3671875 -0.78125 C-11.44540089 -1.05705924 -5.85845068 -0.9686283 0 0 Z " fill="#594AA1" transform="translate(146,21)"/>
<path d="M0 0 C2.85291547 2.85291547 2 5.08693433 2 9 C2.66 9.66 3.32 10.32 4 11 C3.34 11 2.68 11 2 11 C2 24.86 2 38.72 2 53 C2.33 42.77 2.66 32.54 3 22 C3.33 22 3.66 22 4 22 C4.33 56.65 4.66 91.3 5 127 C4.34 127 3.68 127 3 127 C2.67 129.31 2.34 131.62 2 134 C1.01 133.67 0.02 133.34 -1 133 C-2.06590113 127.78639917 -2.14523449 122.77467922 -2.1328125 117.48046875 C-2.13376923 116.58129227 -2.13472595 115.68211578 -2.13571167 114.75569153 C-2.13638947 112.86552866 -2.1345632 110.97536342 -2.13037109 109.08520508 C-2.12498572 106.17979794 -2.13034564 103.27454319 -2.13671875 100.36914062 C-2.13605851 98.53124966 -2.13477848 96.69335878 -2.1328125 94.85546875 C-2.13483673 93.98262741 -2.13686096 93.10978607 -2.13894653 92.210495 C-2.11497118 86.11497118 -2.11497118 86.11497118 -1 85 C-0.87490166 82.35348657 -0.81394005 79.73177781 -0.79467773 77.08374023 C-0.78477814 76.25454071 -0.77487854 75.42534119 -0.76467896 74.5710144 C-0.7329688 71.81690371 -0.70826912 69.06277574 -0.68359375 66.30859375 C-0.66303243 64.40429727 -0.64203618 62.50000545 -0.62062073 60.59571838 C-0.56531515 55.57337194 -0.51594344 50.55098373 -0.46777344 45.52856445 C-0.41762021 40.40767685 -0.36190197 35.2868502 -0.30664062 30.16601562 C-0.19895533 20.1107291 -0.09753355 10.05538975 0 0 Z " fill="#685ACD" transform="translate(90,115)"/>
<path d="M0 0 C3.30313465 7.34029922 0.43977807 16.90480885 -0.875 24.5 C-1.535 24.5 -2.195 24.5 -2.875 24.5 C-2.97296875 25.09167969 -3.0709375 25.68335938 -3.171875 26.29296875 C-4.1673955 31.55377965 -5.41635962 34.34963155 -8.875 38.5 C-10.21388446 41.29347499 -11.43475838 44.11843808 -12.62890625 46.9765625 C-13.82076348 49.3901668 -14.9172334 50.70896627 -16.875 52.5 C-18.05074711 54.59989652 -18.05074711 54.59989652 -18.875 56.5 C-19.535 56.5 -20.195 56.5 -20.875 56.5 C-21.535 57.82 -22.195 59.14 -22.875 60.5 C-23.535 60.5 -24.195 60.5 -24.875 60.5 C-25.24625 61.6446875 -25.24625 61.6446875 -25.625 62.8125 C-26.99630672 65.76080945 -28.1101079 66.85834532 -30.875 68.5 C-31.535 68.5 -32.195 68.5 -32.875 68.5 C-33.205 69.49 -33.535 70.48 -33.875 71.5 C-34.205 70.18 -34.535 68.86 -34.875 67.5 C-33.39 67.005 -33.39 67.005 -31.875 66.5 C-30.66617904 64.49983534 -30.66617904 64.49983534 -29.875 62.5 C-29.215 62.5 -28.555 62.5 -27.875 62.5 C-27.60816406 61.90703125 -27.34132812 61.3140625 -27.06640625 60.703125 C-25.85434963 58.46181375 -24.59564083 57.05421814 -22.8125 55.25 C-11.77439614 42.83213316 -2.69855816 23.26515143 -1.625 6.625 C-1.54313084 3.39955818 -1.54313084 3.39955818 -3.875 1.5 C-14.435 1.17 -24.995 0.84 -35.875 0.5 C-35.875 23.27 -35.875 46.04 -35.875 69.5 C-36.535 69.5 -37.195 69.5 -37.875 69.5 C-38.205 46.07 -38.535 22.64 -38.875 -1.5 C-3.30910853 -2.64728682 -3.30910853 -2.64728682 0 0 Z " fill="#5446A0" transform="translate(231.875,138.5)"/>
<path d="M0 0 C0.33 0 0.66 0 1 0 C1.13166904 21.69114844 1.26210715 43.38230399 1.39115143 65.07346821 C1.45112087 75.14916133 1.51146601 85.22485192 1.57275391 95.30053711 C1.62628459 104.10110922 1.67905104 112.90168556 1.73096704 121.70226735 C1.75838112 126.34516338 1.78613194 130.98805675 1.81480408 135.63094521 C1.88237013 146.60464536 1.9419397 157.5783436 1.98909378 168.5521512 C2.00020509 171.04603253 2.01265086 173.53990486 2.02523804 176.03377914 C2.04518557 180.10686702 2.05937375 184.17993956 2.06938839 188.25306356 C2.0738403 189.76150605 2.07999228 191.26994468 2.08801365 192.77837241 C2.16918785 208.58942279 2.16918785 208.58942279 1 214 C-2.45681187 216.30454125 -5.05644594 216.77755674 -9.125 217.5625 C-10.38570312 217.81128906 -11.64640625 218.06007812 -12.9453125 218.31640625 C-21.19824171 219.77233138 -29.31199412 220.19415462 -37.6875 220.1875 C-38.74533691 220.18669434 -39.80317383 220.18588867 -40.89306641 220.18505859 C-48.77524837 220.12350733 -56.25287349 219.52470043 -64 218 C-65.010625 217.80921875 -66.02125 217.6184375 -67.0625 217.421875 C-69.38085198 216.97108434 -71.69184225 216.49992357 -74 216 C-73.505 215.01 -73.505 215.01 -73 214 C-68.67285284 214.48986572 -64.47661958 215.10850436 -60.21875 216.01953125 C-53.46850612 217.2561827 -46.77388399 217.33701947 -39.93774414 217.31567383 C-37.80499231 217.31248879 -35.67359967 217.33615263 -33.54101562 217.36132812 C-26.32201876 217.39378263 -20.61706482 216.94932032 -14 214 C-10.59375 213.48828125 -10.59375 213.48828125 -7.5 213.3125 C-6.4584375 213.24675781 -5.416875 213.18101562 -4.34375 213.11328125 C-3.18359375 213.05720703 -3.18359375 213.05720703 -2 213 C-1.07072677 208.29190259 -0.8630275 203.73752434 -0.88647461 198.95626831 C-0.88625132 197.76683961 -0.88625132 197.76683961 -0.88602352 196.55338204 C-0.88671612 193.90518956 -0.89455001 191.25706709 -0.90234375 188.60888672 C-0.90426365 186.70631448 -0.90572711 184.80374174 -0.9067688 182.90116882 C-0.90992771 178.80716896 -0.91619347 174.71318977 -0.92483521 170.61919785 C-0.93837378 164.13807074 -0.94425563 157.65695047 -0.94897461 151.17581177 C-0.96101566 136.24038459 -0.98303409 121.30497522 -1.00520325 106.36956024 C-1.02540871 92.69519745 -1.043479 79.0208408 -1.05341816 65.34646618 C-1.05838386 58.91203251 -1.06821945 52.47763069 -1.08184814 46.04320979 C-1.08934318 42.02741158 -1.09263056 38.01161765 -1.0948143 33.99581337 C-1.09667585 32.14318011 -1.10025566 30.29054758 -1.10574722 28.43792152 C-1.13309623 18.90559341 -1.04725887 9.48998106 0 0 Z " fill="#4F4099" transform="translate(166,34)"/>
<path d="M0 0 C0.66 0.33 1.32 0.66 2 1 C2 1.66 2 2.32 2 3 C2.61875 3.2475 3.2375 3.495 3.875 3.75 C6.38710296 5.22770762 6.76107344 6.43955177 8 9 C8.99 9.33 9.98 9.66 11 10 C12.7088992 11.92361459 14.26918012 13.82566408 15.8125 15.875 C16.25537354 16.45564209 16.69824707 17.03628418 17.15454102 17.63452148 C20.47915819 22.08655949 23.24361383 26.69254685 25.74609375 31.66015625 C26.89193069 34.00157292 26.89193069 34.00157292 28.49609375 35.73828125 C30.81890278 39.2315447 31.59260352 43.09100636 32.625 47.125 C33.05302955 48.75304096 33.4826425 50.3806667 33.9140625 52.0078125 C34.1917749 53.08506592 34.1917749 53.08506592 34.47509766 54.18408203 C34.96259659 56.07623783 34.96259659 56.07623783 36 58 C36.2734375 60.42578125 36.2734375 60.42578125 36.375 63.3125 C36.42398438 64.25738281 36.47296875 65.20226562 36.5234375 66.17578125 C35.78298973 70.17088377 34.14463182 71.48429454 31 74 C27.52661133 74.50756836 27.52661133 74.50756836 23.58203125 74.33984375 C22.8835759 74.31531631 22.18512054 74.29078888 21.46549988 74.26551819 C19.99674785 74.20906604 18.52842412 74.14026583 17.06079102 74.05981445 C14.80971376 73.93734842 12.55966216 73.85318257 10.30664062 73.77539062 C-0.68314219 73.31685781 -0.68314219 73.31685781 -3 71 C-3.24050903 68.13998413 -3.24050903 68.13998413 -3.22705078 64.43896484 C-3.22734283 63.76567642 -3.22763489 63.092388 -3.22793579 62.3986969 C-3.22654047 60.16931346 -3.21097016 57.94026268 -3.1953125 55.7109375 C-3.19158308 54.16680077 -3.18873577 52.62266167 -3.18673706 51.07852173 C-3.17909499 47.01124557 -3.15944168 42.94411189 -3.1373291 38.87689209 C-3.11688296 34.7278435 -3.10773799 30.57877193 -3.09765625 26.4296875 C-3.07619625 18.28639289 -3.04205349 10.14321416 -3 2 C-0.83069546 5.51797628 -0.75709762 8.33118625 -0.77294922 12.42089844 C-0.77310028 13.72194519 -0.77325134 15.02299194 -0.77340698 16.36346436 C-0.78361954 17.77876947 -0.79405152 19.19407301 -0.8046875 20.609375 C-0.80841929 22.06097214 -0.81126548 23.5125718 -0.81326294 24.96417236 C-0.82088636 28.77824907 -0.84052365 32.59217262 -0.8626709 36.40618896 C-0.88315722 40.30071949 -0.89227061 44.19527484 -0.90234375 48.08984375 C-0.92377085 55.7266322 -0.95789108 63.36329461 -1 71 C3.52104123 70.90655552 8.04154113 70.8004837 12.56201172 70.68261719 C14.10034021 70.64429699 15.63875925 70.60944944 17.17724609 70.578125 C19.38672276 70.53253941 21.59557448 70.4745366 23.8046875 70.4140625 C24.49432587 70.40251129 25.18396423 70.39096008 25.89450073 70.37905884 C29.8920154 70.35048978 29.8920154 70.35048978 33 68 C34.15522294 51.12549342 24.06483759 31.06591492 14 18 C10.11312643 13.75758296 6.00833801 9.77647556 1.69921875 5.96484375 C0 4 0 4 0 0 Z " fill="#5749A1" transform="translate(197,46)"/>
<path d="M0 0 C0 18.81 0 37.62 0 57 C-0.33 57 -0.66 57 -1 57 C-1 38.52 -1 20.04 -1 1 C-10.8595148 5.89482473 -10.8595148 5.89482473 -20.25 11.375 C-21.34828125 12.06335937 -22.4465625 12.75171875 -23.578125 13.4609375 C-24.77695313 14.22277344 -24.77695313 14.22277344 -26 15 C-25.34 16.32 -24.68 17.64 -24 19 C-24.87398437 18.91492188 -25.74796875 18.82984375 -26.6484375 18.7421875 C-32.75570943 19.21197765 -36.72943434 23.90401721 -41 28 C-42.57127105 29.94250542 -43.7212481 31.83595833 -45 34 C-46.62746694 35.70496537 -48.28891311 37.37897032 -50 39 C-52.22189824 41.22189824 -52.92598892 43.08482708 -54 46 C-54.66 46 -55.32 46 -56 46 C-56.2475 46.66 -56.495 47.32 -56.75 48 C-58.31817045 51.76360907 -60.14505046 55.3711424 -62 59 C-62.66 59 -63.32 59 -64 59 C-64.12246094 59.70511719 -64.24492188 60.41023438 -64.37109375 61.13671875 C-65.03405201 64.15503183 -65.98175575 66.91889442 -67.0625 69.8125 C-67.42472656 70.78832031 -67.78695312 71.76414062 -68.16015625 72.76953125 C-68.57587891 73.87361328 -68.57587891 73.87361328 -69 75 C-69.99 74.67 -70.98 74.34 -72 74 C-61.25469182 43.74477743 -41.82132343 20.10145735 -14 4 C-12.69095703 3.18789063 -12.69095703 3.18789063 -11.35546875 2.359375 C-10.57816406 1.89015625 -9.80085938 1.4209375 -9 0.9375 C-8.34 0.53402344 -7.68 0.13054688 -7 -0.28515625 C-5 -1 -5 -1 0 0 Z " fill="#6054AE" transform="translate(80,13)"/>
<path d="M0 0 C0.33 0 0.66 0 1 0 C1.29296875 6.0546875 1.29296875 6.0546875 1 8 C-2.45681187 10.30454125 -5.05644594 10.77755674 -9.125 11.5625 C-10.38570312 11.81128906 -11.64640625 12.06007812 -12.9453125 12.31640625 C-21.19824171 13.77233138 -29.31199412 14.19415462 -37.6875 14.1875 C-38.74533691 14.18669434 -39.80317383 14.18588867 -40.89306641 14.18505859 C-48.77524837 14.12350733 -56.25287349 13.52470043 -64 12 C-65.010625 11.80921875 -66.02125 11.6184375 -67.0625 11.421875 C-69.38085198 10.97108434 -71.69184225 10.49992357 -74 10 C-73.67 9.34 -73.34 8.68 -73 8 C-68.67285284 8.48986572 -64.47661958 9.10850436 -60.21875 10.01953125 C-53.46850612 11.2561827 -46.77388399 11.33701947 -39.93774414 11.31567383 C-37.80499231 11.31248879 -35.67359967 11.33615263 -33.54101562 11.36132812 C-26.32201876 11.39378263 -20.61706482 10.94932032 -14 8 C-10.59375 7.48828125 -10.59375 7.48828125 -7.5 7.3125 C-6.4584375 7.24675781 -5.416875 7.18101562 -4.34375 7.11328125 C-3.18359375 7.05720703 -3.18359375 7.05720703 -2 7 C-1.34 4.69 -0.68 2.38 0 0 Z " fill="#5C4FA8" transform="translate(166,240)"/>
<path d="M0 0 C3.59294832 0.9543769 4.85875547 1.8033812 7.0625 4.87109375 C7.72522882 6.05056041 8.37030104 7.24007346 9 8.4375 C9.34393799 9.07002686 9.68787598 9.70255371 10.04223633 10.35424805 C11.04833449 12.22636073 12.0281292 14.10993581 13 16 C13.47824219 16.91523437 13.95648438 17.83046875 14.44921875 18.7734375 C20.93990064 32.08240668 28.0764012 52.27332205 25 67 C23.5625 68.9375 23.5625 68.9375 22 70 C21.34 70 20.68 70 20 70 C20.309375 69.46375 20.61875 68.9275 20.9375 68.375 C26.23923537 56.52406212 20.04858538 40.88471218 15.92236328 29.37939453 C13.16511459 22.26659787 9.85226574 14.80088446 5.26171875 8.68359375 C4 7 4 7 4 5 C3.34 5 2.68 5 2 5 C1.34 3.35 0.68 1.7 0 0 Z " fill="#5F54A0" transform="translate(228,55)"/>
<path d="M0 0 C0.33 0 0.66 0 1 0 C1.29190989 5.54628793 0.80025142 10.26783117 -0.4375 15.6875 C-2.61404959 26.19905291 -2.61404959 26.19905291 -3 46 C15.48 46.33 33.96 46.66 53 47 C53 47.33 53 47.66 53 48 C45.58540058 48.02312883 38.17080889 48.04091785 30.75618076 48.05181217 C27.31359652 48.05703982 23.87103688 48.06413531 20.4284668 48.07543945 C16.47444957 48.08834235 12.52044244 48.09322918 8.56640625 48.09765625 C6.70394005 48.10539818 6.70394005 48.10539818 4.80384827 48.11329651 C3.09218727 48.11340981 3.09218727 48.11340981 1.34594727 48.11352539 C0.335569 48.115746 -0.67480927 48.11796661 -1.71580505 48.12025452 C-4 48 -4 48 -5 47 C-6.46564527 31.03112862 -3.96789534 15.40578496 0 0 Z " fill="#5F53A0" transform="translate(7,90)"/>
<path d="M0 0 C0.33 0 0.66 0 1 0 C1.48804845 7.80877513 -0.98566636 13.5877883 -4.9609375 20.203125 C-6.458652 22.7931576 -7.70948434 25.49245566 -8.97265625 28.203125 C-10.08719413 30.15250685 -11.3912138 31.44743482 -13 33 C-14.17574711 35.09989652 -14.17574711 35.09989652 -15 37 C-15.66 37 -16.32 37 -17 37 C-17.66 38.32 -18.32 39.64 -19 41 C-19.66 41 -20.32 41 -21 41 C-21.2475 41.763125 -21.495 42.52625 -21.75 43.3125 C-23.12130672 46.26080945 -24.2351079 47.35834532 -27 49 C-27.66 49 -28.32 49 -29 49 C-29.33 49.99 -29.66 50.98 -30 52 C-30.33 50.68 -30.66 49.36 -31 48 C-29.515 47.505 -29.515 47.505 -28 47 C-26.79117904 44.99983534 -26.79117904 44.99983534 -26 43 C-25.34 43 -24.68 43 -24 43 C-23.73316406 42.40703125 -23.46632812 41.8140625 -23.19140625 41.203125 C-21.97934963 38.96181375 -20.72064083 37.55421814 -18.9375 35.75 C-9.9172386 25.62099814 -4.61309409 12.59103329 0 0 Z " fill="#5F53AB" transform="translate(228,158)"/>
<path d="M0 0 C0.99 0 1.98 0 3 0 C3.02312792 7.80575195 3.04091738 15.61149595 3.05181217 23.41727352 C3.05704002 27.0414596 3.06413587 30.6656223 3.07543945 34.28979492 C3.08627184 37.78459975 3.09227758 41.27938204 3.09487724 44.77420235 C3.09763551 46.76239389 3.10544688 48.75057631 3.11329651 50.73875427 C3.11340981 52.54050865 3.11340981 52.54050865 3.11352539 54.37866211 C3.115746 55.44233505 3.11796661 56.506008 3.12025452 57.60191345 C3 60 3 60 2 61 C0.59651265 61.09860131 -0.81180477 61.13078937 -2.21875 61.1328125 C-3.49298828 61.13474609 -3.49298828 61.13474609 -4.79296875 61.13671875 C-6.13294922 61.13091797 -6.13294922 61.13091797 -7.5 61.125 C-8.39332031 61.12886719 -9.28664063 61.13273437 -10.20703125 61.13671875 C-11.05652344 61.13542969 -11.90601562 61.13414063 -12.78125 61.1328125 C-13.56564453 61.13168457 -14.35003906 61.13055664 -15.15820312 61.12939453 C-17 61 -17 61 -18 60 C-18.08713831 58.29227642 -18.10700007 56.58101351 -18.09765625 54.87109375 C-18.09443359 53.83662109 -18.09121094 52.80214844 -18.08789062 51.73632812 C-18.07532227 50.1034082 -18.07532227 50.1034082 -18.0625 48.4375 C-18.05798828 47.34501953 -18.05347656 46.25253906 -18.04882812 45.12695312 C-18.03699826 42.41791505 -18.02051543 39.70898401 -18 37 C-17.34 37 -16.68 37 -16 37 C-15.67 44.26 -15.34 51.52 -15 59 C-9.39 59 -3.78 59 2 59 C1.89200082 51.60257718 1.7799342 44.20524317 1.66066074 36.80799294 C1.60544377 33.37333017 1.55202577 29.93865887 1.50268555 26.50390625 C1.44591293 22.55720111 1.38137602 18.61064158 1.31640625 14.6640625 C1.29969376 13.42757965 1.28298126 12.1910968 1.26576233 10.91714478 C1.24581711 9.77611298 1.22587189 8.63508118 1.20532227 7.45947266 C1.18200584 5.94723618 1.18200584 5.94723618 1.15821838 4.40444946 C1.1551345 1.98733556 1.1551345 1.98733556 0 0 Z " fill="#564895" transform="translate(78,11)"/>
<path d="M0 0 C0.33 0 0.66 0 1 0 C1.33 10.56 1.66 21.12 2 32 C2.66 32 3.32 32 4 32 C5.1875 34.75 5.1875 34.75 6 38 C5 39.33333333 4 40.66666667 3 42 C2.43015552 44.57873609 2.43015552 44.57873609 2.3125 47.25 C2.24675781 48.14203125 2.18101563 49.0340625 2.11328125 49.953125 C2.05720703 50.96632813 2.05720703 50.96632813 2 52 C-3.42012746 43.86980882 -1.09931145 28.93920662 -1.125 19.4375 C-1.12967285 18.21232666 -1.1343457 16.98715332 -1.13916016 15.72485352 C-1.13706543 14.55623779 -1.1349707 13.38762207 -1.1328125 12.18359375 C-1.13168457 11.13743896 -1.13055664 10.09128418 -1.12939453 9.01342773 C-0.99727995 5.93665352 -0.56891897 3.02397098 0 0 Z " fill="#574ABA" transform="translate(89,40)"/>
<path d="M0 0 C0.66 0 1.32 0 2 0 C2 12.54 2 25.08 2 38 C2.66 38 3.32 38 4 38 C4 40.64 4 43.28 4 46 C3.01 45.67 2.02 45.34 1 45 C-0.03485633 39.90807713 -0.13009967 35.05052659 -0.09765625 29.8828125 C-0.0962413 29.02565643 -0.09482635 28.16850037 -0.09336853 27.28536987 C-0.08780022 24.5652101 -0.07525364 21.84513462 -0.0625 19.125 C-0.0574809 17.27343869 -0.05291871 15.42187609 -0.04882812 13.5703125 C-0.03784117 9.04684285 -0.02059852 4.52343568 0 0 Z " fill="#5F52A5" transform="translate(88,203)"/>
<path d="M0 0 C0.99 0 1.98 0 3 0 C2.34 1.98 1.68 3.96 1 6 C0.34 6 -0.32 6 -1 6 C-1.03738281 6.66902344 -1.07476563 7.33804688 -1.11328125 8.02734375 C-1.53732896 14.22176625 -2.34555764 20.22153462 -3.5 26.3125 C-4.98791558 34.20577604 -5.66128697 41.97600504 -6 50 C-5.34 50 -4.68 50 -4 50 C-4.33 50.66 -4.66 51.32 -5 52 C-5.66 51.67 -6.32 51.34 -7 51 C-7.30842893 39.45843141 -7.39265342 28.58201925 -4.734375 17.296875 C-3.68029598 12.56473301 -3.29129432 7.83146779 -3 3 C-2.01 3 -1.02 3 0 3 C0 2.01 0 1.02 0 0 Z " fill="#6759C4" transform="translate(11,85)"/>
<path d="M0 0 C0.66 0.99 1.32 1.98 2 3 C0 4 0 4 -1.66308594 3.56860352 C-4.93161393 2.77332545 -8.02912677 2.88900447 -11.390625 2.90234375 C-12.44754547 2.90446617 -12.44754547 2.90446617 -13.52581787 2.90663147 C-15.76725584 2.91221067 -18.00859243 2.92475927 -20.25 2.9375 C-21.77343605 2.94251769 -23.29687368 2.94708013 -24.8203125 2.95117188 C-28.54690772 2.96217326 -32.27344396 2.97942354 -36 3 C-36 2.34 -36 1.68 -36 1 C-30.75261244 -0.14618305 -25.6027168 -0.3823435 -20.25 -0.625 C-19.29867187 -0.6765625 -18.34734375 -0.728125 -17.3671875 -0.78125 C-11.45067367 -1.05681366 -5.84152656 -1.05892215 0 0 Z " fill="#564B9C" transform="translate(146,21)"/>
<path d="M0 0 C2.94734357 1.0105178 5.01150102 2.00943674 7.4375 4 C10.21562849 6.1682954 12.62819311 7.05903063 16 8 C16 8.66 16 9.32 16 10 C18.475 10.495 18.475 10.495 21 11 C21 11.66 21 12.32 21 13 C23.31 13.66 25.62 14.32 28 15 C28 15.66 28 16.32 28 17 C24.52306714 16.43051548 21.82335245 15.56964531 18.75 13.85546875 C17.9765625 13.42556641 17.203125 12.99566406 16.40625 12.55273438 C15.6121875 12.10220703 14.818125 11.65167969 14 11.1875 C13.2059375 10.74857422 12.411875 10.30964844 11.59375 9.85742188 C7.45887605 7.53844674 3.49313683 5.24664532 0 2 C0 1.34 0 0.68 0 0 Z " fill="#594BA0" transform="translate(51,226)"/>
<path d="M0 0 C0.99 0.495 0.99 0.495 2 1 C2 1.66 2 2.32 2 3 C2.928125 3.37125 2.928125 3.37125 3.875 3.75 C6.38710296 5.22770762 6.76107344 6.43955177 8 9 C8.99 9.33 9.98 9.66 11 10 C13.04296875 12.50390625 13.04296875 12.50390625 15.1875 15.5625 C16.26064453 17.08037109 16.26064453 17.08037109 17.35546875 18.62890625 C17.89816406 19.41136719 18.44085938 20.19382812 19 21 C18.67 21.66 18.34 22.32 18 23 C17.19175781 22.11957031 16.38351563 21.23914063 15.55078125 20.33203125 C14.47141058 19.15880226 13.39198033 17.98562809 12.3125 16.8125 C11.78205078 16.23435547 11.25160156 15.65621094 10.70507812 15.06054688 C8.24162492 12.38550873 5.77224352 9.77975198 3.15625 7.25 C0.78422197 4.77484031 0.28862467 3.36728781 0 0 Z " fill="#4D41A5" transform="translate(197,46)"/>
<path d="M0 0 C0.33 0.66 0.66 1.32 1 2 C-0.25 5.0625 -0.25 5.0625 -2 8 C-2.99 8.33 -3.98 8.66 -5 9 C-5.309375 9.78375 -5.61875 10.5675 -5.9375 11.375 C-7.15165758 14.37468342 -8.2512455 15.36792702 -11 17 C-11.66 17 -12.32 17 -13 17 C-13.33 17.99 -13.66 18.98 -14 20 C-14.33 18.68 -14.66 17.36 -15 16 C-14.01 15.67 -13.02 15.34 -12 15 C-10.79117904 12.99983534 -10.79117904 12.99983534 -10 11 C-9.34 11 -8.68 11 -8 11 C-7.73445312 10.41734375 -7.46890625 9.8346875 -7.1953125 9.234375 C-5.96697004 6.93825772 -4.59685061 5.19643982 -2.875 3.25 C-2.33617187 2.63640625 -1.79734375 2.0228125 -1.2421875 1.390625 C-0.62730469 0.70226562 -0.62730469 0.70226562 0 0 Z " fill="#5B4FA2" transform="translate(212,190)"/>
<path d="M0 0 C21.67249412 -1.64396326 21.67249412 -1.64396326 27.15234375 2.2265625 C28.85914932 4.78857509 30.07855115 7.06811731 31 10 C30.67 10.66 30.34 11.32 30 12 C25 7 25 7 22.96875 4.375 C18.7020924 0.96167392 15.00571361 1.22132609 9.6875 1.1875 C8.75615234 1.16236328 7.82480469 1.13722656 6.86523438 1.11132812 C4.57639814 1.05264002 2.28946574 1.01622832 0 1 C0 0.67 0 0.34 0 0 Z " fill="#63589D" transform="translate(16,183)"/>
<path d="M0 0 C0.33 0.66 0.66 1.32 1 2 C1.66 2.33 2.32 2.66 3 3 C3.05394705 5.60444348 3.09364469 8.20776998 3.125 10.8125 C3.14175781 11.55048828 3.15851563 12.28847656 3.17578125 13.04882812 C3.21074628 16.91246426 3.19397555 18.70903668 1 22 C-0.62750574 18.74498852 -0.42382749 15.14514569 -0.625 11.5625 C-0.6765625 10.78583984 -0.728125 10.00917969 -0.78125 9.20898438 C-0.97938842 5.82606221 -1.08144347 3.24433042 0 0 Z " fill="#5847B4" transform="translate(165,12)"/>
<path d="M0 0 C2.81477765 4.22216647 2.68198795 8.03934954 2 13 C0.125 15.625 0.125 15.625 -2 17 C-2.66 17 -3.32 17 -4 17 C-4 16.34 -4 15.68 -4 15 C-12.91 15 -21.82 15 -31 15 C-31 14.67 -31 14.34 -31 14 C-29.69796631 13.970271 -29.69796631 13.970271 -28.36962891 13.93994141 C-25.15273733 13.86190128 -21.93622955 13.77521119 -18.71972656 13.68261719 C-17.32691428 13.64430673 -15.93400235 13.60945741 -14.54101562 13.578125 C-12.54013692 13.53252093 -10.53957854 13.47348377 -8.5390625 13.4140625 C-7.33459473 13.3826416 -6.13012695 13.3512207 -4.88916016 13.31884766 C-1.8739982 13.29084774 -1.8739982 13.29084774 0 11 C0.24315656 8.33050591 0.24315656 8.33050591 0.125 5.375 C0.10695312 4.37210937 0.08890625 3.36921875 0.0703125 2.3359375 C0.04710937 1.56507812 0.02390625 0.79421875 0 0 Z " fill="#655A9D" transform="translate(230,103)"/>
<path d="M0 0 C3 2 3 2 3.984375 5.44921875 C4.25287593 6.85951324 4.50757274 8.27249035 4.75 9.6875 C4.88792969 10.38294922 5.02585938 11.07839844 5.16796875 11.79492188 C6.00766866 16.43058476 6.00504671 20.33329187 5 25 C3.5625 26.9375 3.5625 26.9375 2 28 C1.34 28 0.68 28 0 28 C0.309375 27.46375 0.61875 26.9275 0.9375 26.375 C3.28754412 21.1219602 3.00663687 16.46675166 2.125 10.875 C1.94195312 9.67617187 1.75890625 8.47734375 1.5703125 7.2421875 C1.13786516 4.783754 0.65802509 2.40478261 0 0 Z " fill="#594E97" transform="translate(248,97)"/>
<path d="M0 0 C11.55 0.33 23.1 0.66 35 1 C35 1.33 35 1.66 35 2 C24.44 2 13.88 2 3 2 C3 4.64 3 7.28 3 10 C2.67 10 2.34 10 2 10 C1.67 8.35 1.34 6.7 1 5 C0.67 5 0.34 5 0 5 C0 3.35 0 1.7 0 0 Z " fill="#69629F" transform="translate(193,137)"/>
<path d="M0 0 C-1 1 -1 1 -3.50390625 1.09765625 C-5.01791016 1.08025391 -5.01791016 1.08025391 -6.5625 1.0625 C-7.57441406 1.05347656 -8.58632812 1.04445313 -9.62890625 1.03515625 C-10.41136719 1.02355469 -11.19382812 1.01195312 -12 1 C-12 2.32 -12 3.64 -12 5 C-11.01 5 -10.02 5 -9 5 C-10 8 -10 8 -14 10 C-14 6.7 -14 3.4 -14 0 C-8.44766951 -2.1951074 -5.52852971 -1.84284324 0 0 Z " fill="#6256BC" transform="translate(104,7)"/>
<path d="M0 0 C8.58 0.99 17.16 1.98 26 3 C26 3.33 26 3.66 26 4 C22.60418484 4.0291544 19.20840214 4.04685068 15.8125 4.0625 C14.85279297 4.07087891 13.89308594 4.07925781 12.90429688 4.08789062 C11.97294922 4.09111328 11.04160156 4.09433594 10.08203125 4.09765625 C9.22843018 4.10289307 8.3748291 4.10812988 7.49536133 4.11352539 C4.90753253 3.99579323 2.52338047 3.57107044 0 3 C0 2.01 0 1.02 0 0 Z " fill="#554BA4" transform="translate(110,231)"/>
<path d="M0 0 C0.99 0 1.98 0 3 0 C3 0.66 3 1.32 3 2 C3.66 2 4.32 2 5 2 C6.65625 3.609375 6.65625 3.609375 8.5 5.75 C9.1084375 6.44609375 9.716875 7.1421875 10.34375 7.859375 C11.87976963 9.84460792 12.9723966 11.71872045 14 14 C11.5625 13.1875 11.5625 13.1875 9 12 C8.67 11.01 8.34 10.02 8 9 C7.01 8.67 6.02 8.34 5 8 C3.96986723 6.35178756 2.96885372 4.68496298 2 3 C1.34 2.67 0.68 2.34 0 2 C0 1.34 0 0.68 0 0 Z " fill="#574BA3" transform="translate(45,194)"/>
<path d="M0 0 C5.96652354 1.57013777 10.82909025 4.75029782 16 8 C15.67 8.66 15.34 9.32 15 10 C12.02762515 8.54837507 9.1597137 7.10267309 6.375 5.3125 C3.86876175 3.67754259 3.86876175 3.67754259 0 4 C0 2.68 0 1.36 0 0 Z " fill="#5A4EA6" transform="translate(176,11)"/>
<path d="M0 0 C0.33 0.99 0.66 1.98 1 3 C-10.52164009 9.51936219 -10.52164009 9.51936219 -16 11 C-16 10.34 -16 9.68 -16 9 C-14.845 8.443125 -13.69 7.88625 -12.5 7.3125 C-8.15159337 5.1460617 -4.07236162 2.64270275 0 0 Z " fill="#55489A" transform="translate(193,233)"/>
<path d="M0 0 C0.33 0 0.66 0 1 0 C1.29296875 6.0546875 1.29296875 6.0546875 1 8 C-2.40431947 10.26954631 -4.16524202 10.36549949 -8.1875 10.625 C-9.27417969 10.69976562 -10.36085937 10.77453125 -11.48046875 10.8515625 C-12.72763672 10.92503906 -12.72763672 10.92503906 -14 11 C-11.14521674 9.09681116 -9.58058692 8.5380901 -6.3125 7.875 C-5.50425781 7.70742187 -4.69601563 7.53984375 -3.86328125 7.3671875 C-3.24839844 7.24601563 -2.63351563 7.12484375 -2 7 C-1.34 4.69 -0.68 2.38 0 0 Z " fill="#594D96" transform="translate(166,240)"/>
<path d="M0 0 C-5.91108667 3.85189664 -11.03125494 6.70949166 -18 8 C-15.52356664 5.23173106 -12.79390558 3.55643026 -9.5625 1.75 C-8.61503906 1.20859375 -7.66757813 0.6671875 -6.69140625 0.109375 C-3.82933788 -1.07034549 -2.81237071 -1.14356445 0 0 Z " fill="#62579F" transform="translate(79,13)"/>
<path d="M0 0 C3.8833424 1.5255988 5.97985251 3.33380641 8 7 C8.03677157 10.72968828 7.59259339 14.32205623 7 18 C6.67 18 6.34 18 6 18 C5.94392578 16.86111328 5.94392578 16.86111328 5.88671875 15.69921875 C5.78810547 14.20841797 5.78810547 14.20841797 5.6875 12.6875 C5.62949219 11.70136719 5.57148438 10.71523437 5.51171875 9.69921875 C4.94340105 6.70145133 4.23500395 5.9473895 2 4 C2 3.34 2 2.68 2 2 C1.34 2 0.68 2 0 2 C0 1.34 0 0.68 0 0 Z " fill="#625496" transform="translate(246,129)"/>
<path d="M0 0 C0.33 0 0.66 0 1 0 C1 5.61 1 11.22 1 17 C0.34 17 -0.32 17 -1 17 C-1 17.66 -1 18.32 -1 19 C-1.66 18.67 -2.32 18.34 -3 18 C-2.690625 16.88625 -2.38125 15.7725 -2.0625 14.625 C-0.84199336 9.79490988 -0.38600363 4.95709931 0 0 Z " fill="#5C4EA7" transform="translate(251,136)"/>
<path d="M0 0 C0.99 0.495 0.99 0.495 2 1 C2 1.66 2 2.32 2 3 C2.61875 3.28875 3.2375 3.5775 3.875 3.875 C6 5 6 5 8 7 C8 7.99 8 8.98 8 10 C4.63362603 8.5572683 2.33497429 6.83532593 0 4 C0 2.68 0 1.36 0 0 Z " fill="#584DA1" transform="translate(197,46)"/>
<path d="M0 0 C6.57142857 4 6.57142857 4 8 8 C7.34 8 6.68 8 6 8 C6 7.34 6 6.68 6 6 C5.21625 5.9175 4.4325 5.835 3.625 5.75 C1 5 1 5 -0.3125 2.9375 C-0.539375 2.298125 -0.76625 1.65875 -1 1 C-0.67 0.67 -0.34 0.34 0 0 Z " fill="#6558B7" transform="translate(30,204)"/>
<path d="M0 0 C1.43791516 0.14168137 2.8753237 0.28851043 4.3125 0.4375 C5.11300781 0.51871094 5.91351563 0.59992187 6.73828125 0.68359375 C9 1 9 1 12 2 C12 4.31 12 6.62 12 9 C11.77570313 8.38640625 11.55140625 7.7728125 11.3203125 7.140625 C9.57487194 4.31073913 7.9690077 3.86066943 4.875 2.75 C3.96492187 2.41484375 3.05484375 2.0796875 2.1171875 1.734375 C1.41851562 1.49203125 0.71984375 1.2496875 0 1 C0 0.67 0 0.34 0 0 Z " fill="#605499" transform="translate(155,5)"/>
<path d="M0 0 C2.0625 0.4375 2.0625 0.4375 4 1 C3.01 2.98 2.02 4.96 1 7 C1.66 7.33 2.32 7.66 3 8 C1.68 7.67 0.36 7.34 -1 7 C-1.04254356 5.00045254 -1.04080783 2.99958364 -1 1 C-0.67 0.67 -0.34 0.34 0 0 Z " fill="#6658B9" transform="translate(245,124)"/>
<path d="M0 0 C0.66 0.33 1.32 0.66 2 1 C1.6684371 4.0945871 0.97117406 5.02804686 -1.3125 7.25 C-4 9 -4 9 -8 9 C-7 7 -7 7 -5.125 6.1875 C-2.35873868 4.64164808 -1.45344564 2.76154672 0 0 Z " fill="#6B5BC8" transform="translate(233,112)"/>
<path d="M0 0 C0.66 0 1.32 0 2 0 C1.38909774 6.47556391 1.38909774 6.47556391 -0.4375 8.9375 C-2 10 -2 10 -4 10 C-3.71125 9.46375 -3.4225 8.9275 -3.125 8.375 C-1.83288192 5.64719516 -0.91441408 2.87387282 0 0 Z " fill="#57488E" transform="translate(252,115)"/>
<path d="M0 0 C0.7425 0.0825 1.485 0.165 2.25 0.25 C2.25 0.91 2.25 1.57 2.25 2.25 C0.61935236 3.30771739 -1.05280873 4.30273046 -2.75 5.25 C-3.74 5.91 -4.73 6.57 -5.75 7.25 C-6.08 6.26 -6.41 5.27 -6.75 4.25 C-3.42692308 0.31153846 -3.42692308 0.31153846 0 0 Z " fill="#594FAC" transform="translate(59.75,45.75)"/>
<path d="M0 0 C0 4.35251187 -2.06165511 5.92809398 -5 9 C-7.171875 9.6796875 -7.171875 9.6796875 -9 10 C-8.06409496 8.8944811 -7.12620142 7.79064547 -6.1875 6.6875 C-5.66542969 6.07261719 -5.14335938 5.45773438 -4.60546875 4.82421875 C-3.12827531 3.14575321 -1.59960869 1.56117966 0 0 Z " fill="#6C62A7" transform="translate(43,33)"/>
<path d="M0 0 C0.66 0.33 1.32 0.66 2 1 C1.67 1.66 1.34 2.32 1 3 C1.99 3.33 2.98 3.66 4 4 C3.01 5.32 2.02 6.64 1 8 C0.67 7.01 0.34 6.02 0 5 C-0.66 5.99 -1.32 6.98 -2 8 C-2.20086443 4.28400809 -2.1519437 3.22791555 0 0 Z " fill="#6C60E1" transform="translate(227,192)"/>
<path d="M0 0 C1 2 1 2 0.25 4.9375 C-0.89726872 7.74830836 -1.69701628 9.1157406 -4 11 C-4.33 10.34 -4.66 9.68 -5 9 C-4.00390625 6.8359375 -4.00390625 6.8359375 -2.5625 4.375 C-2.08941406 3.55773437 -1.61632813 2.74046875 -1.12890625 1.8984375 C-0.75636719 1.27195312 -0.38382813 0.64546875 0 0 Z " fill="#5346AE" transform="translate(39,67)"/>
<path d="M0 0 C0.66 0.33 1.32 0.66 2 1 C2 1.66 2 2.32 2 3 C2.99 3.33 3.98 3.66 5 4 C5 4.33 5 4.66 5 5 C3.35 5 1.7 5 0 5 C-0.66 3.68 -1.32 2.36 -2 1 C-1.34 0.67 -0.68 0.34 0 0 Z " fill="#665BC6" transform="translate(43,193)"/>
<path d="M0 0 C2.475 0.495 2.475 0.495 5 1 C4.01 1.495 4.01 1.495 3 2 C3 4.64 3 7.28 3 10 C2.67 10 2.34 10 2 10 C1.67 8.35 1.34 6.7 1 5 C0.67 5 0.34 5 0 5 C0 3.35 0 1.7 0 0 Z " fill="#5F54AB" transform="translate(193,137)"/>
<path d="M0 0 C0.66 0.33 1.32 0.66 2 1 C1.67 1.99 1.34 2.98 1 4 C0.01 4 -0.98 4 -2 4 C-2 4.66 -2 5.32 -2 6 C-2.99 5.67 -3.98 5.34 -5 5 C-3.35 3.35 -1.7 1.7 0 0 Z " fill="#6A5CE5" transform="translate(247,117)"/>
<path d="M0 0 C-5.625 4 -5.625 4 -9 4 C-8.67 3.01 -8.34 2.02 -8 1 C-2.59770115 -1.29885057 -2.59770115 -1.29885057 0 0 Z " fill="#5C50AB" transform="translate(67,20)"/>
<path d="M0 0 C0.66 0.33 1.32 0.66 2 1 C-0.475 4.465 -0.475 4.465 -3 8 C-4.33332095 5.3333581 -3.67102033 3.83319697 -3 1 C-2.01 0.67 -1.02 0.34 0 0 Z " fill="#6656C7" transform="translate(227,200)"/>
<path d="M0 0 C1.32 0.33 2.64 0.66 4 1 C3.67 3.64 3.34 6.28 3 9 C2.67 9 2.34 9 2 9 C1.855625 7.88625 1.71125 6.7725 1.5625 5.625 C1.21627965 2.17857953 1.21627965 2.17857953 0 0 Z " fill="#675AA5" transform="translate(229,140)"/>
<path d="M0 0 C2.76223278 2.76223278 2.57856291 5.20706617 3 9 C2.34 9 1.68 9 1 9 C1 7.68 1 6.36 1 5 C0.34 5 -0.32 5 -1 5 C-0.67 3.35 -0.34 1.7 0 0 Z " fill="#6559C1" transform="translate(243,82)"/>
</svg>
